<?xml version="1.0" encoding="utf-8" standalone="no"?>
<!DOCTYPE svg PUBLIC "-//W3C//DTD SVG 1.1//EN"
  "http://www.w3.org/Graphics/SVG/1.1/DTD/svg11.dtd">
<svg xmlns:xlink="http://www.w3.org/1999/xlink" width="720pt" height="576pt" viewBox="0 0 720 576" xmlns="http://www.w3.org/2000/svg" version="1.1">
 <metadata>
  <rdf:RDF xmlns:dc="http://purl.org/dc/elements/1.1/" xmlns:cc="http://creativecommons.org/ns#" xmlns:rdf="http://www.w3.org/1999/02/22-rdf-syntax-ns#">
   <cc:Work>
    <dc:type rdf:resource="http://purl.org/dc/dcmitype/StillImage"/>
    <dc:date>2026-05-12T10:33:44.637928</dc:date>
    <dc:format>image/svg+xml</dc:format>
    <dc:creator>
     <cc:Agent>
      <dc:title>Matplotlib v3.10.8, https://matplotlib.org/</dc:title>
     </cc:Agent>
    </dc:creator>
   </cc:Work>
  </rdf:RDF>
 </metadata>
 <defs>
  <style type="text/css">*{stroke-linejoin: round; stroke-linecap: butt}</style>
 </defs>
 <g id="figure_1">
  <g id="patch_1">
   <path d="M 0 576 
L 720 576 
L 720 0 
L 0 0 
z
" style="fill: #ffffff"/>
  </g>
  <g id="axes_1">
   <g id="patch_2">
    <path d="M 49.538 175.68 
L 709.2 175.68 
L 709.2 25.44 
L 49.538 25.44 
z
" style="fill: #ffffff"/>
   </g>
   <g id="matplotlib.axis_1">
    <g id="xtick_1">
     <g id="line2d_1">
      <path d="M 79.522636 175.68 
L 79.522636 25.44 
" clip-path="url(#pd756c66bd3)" style="fill: none; stroke: #b0b0b0; stroke-opacity: 0.3; stroke-width: 0.8; stroke-linecap: square"/>
     </g>
     <g id="line2d_2">
      <defs>
       <path id="m69db159c1d" d="M 0 0 
L 0 3.5 
" style="stroke: #000000; stroke-width: 0.8"/>
      </defs>
      <g>
       <use xlink:href="#m69db159c1d" x="79.522636" y="175.68" style="stroke: #000000; stroke-width: 0.8"/>
      </g>
     </g>
    </g>
    <g id="xtick_2">
     <g id="line2d_3">
      <path d="M 179.805701 175.68 
L 179.805701 25.44 
" clip-path="url(#pd756c66bd3)" style="fill: none; stroke: #b0b0b0; stroke-opacity: 0.3; stroke-width: 0.8; stroke-linecap: square"/>
     </g>
     <g id="line2d_4">
      <g>
       <use xlink:href="#m69db159c1d" x="179.805701" y="175.68" style="stroke: #000000; stroke-width: 0.8"/>
      </g>
     </g>
    </g>
    <g id="xtick_3">
     <g id="line2d_5">
      <path d="M 280.088766 175.68 
L 280.088766 25.44 
" clip-path="url(#pd756c66bd3)" style="fill: none; stroke: #b0b0b0; stroke-opacity: 0.3; stroke-width: 0.8; stroke-linecap: square"/>
     </g>
     <g id="line2d_6">
      <g>
       <use xlink:href="#m69db159c1d" x="280.088766" y="175.68" style="stroke: #000000; stroke-width: 0.8"/>
      </g>
     </g>
    </g>
    <g id="xtick_4">
     <g id="line2d_7">
      <path d="M 380.371831 175.68 
L 380.371831 25.44 
" clip-path="url(#pd756c66bd3)" style="fill: none; stroke: #b0b0b0; stroke-opacity: 0.3; stroke-width: 0.8; stroke-linecap: square"/>
     </g>
     <g id="line2d_8">
      <g>
       <use xlink:href="#m69db159c1d" x="380.371831" y="175.68" style="stroke: #000000; stroke-width: 0.8"/>
      </g>
     </g>
    </g>
    <g id="xtick_5">
     <g id="line2d_9">
      <path d="M 480.654895 175.68 
L 480.654895 25.44 
" clip-path="url(#pd756c66bd3)" style="fill: none; stroke: #b0b0b0; stroke-opacity: 0.3; stroke-width: 0.8; stroke-linecap: square"/>
     </g>
     <g id="line2d_10">
      <g>
       <use xlink:href="#m69db159c1d" x="480.654895" y="175.68" style="stroke: #000000; stroke-width: 0.8"/>
      </g>
     </g>
    </g>
    <g id="xtick_6">
     <g id="line2d_11">
      <path d="M 580.93796 175.68 
L 580.93796 25.44 
" clip-path="url(#pd756c66bd3)" style="fill: none; stroke: #b0b0b0; stroke-opacity: 0.3; stroke-width: 0.8; stroke-linecap: square"/>
     </g>
     <g id="line2d_12">
      <g>
       <use xlink:href="#m69db159c1d" x="580.93796" y="175.68" style="stroke: #000000; stroke-width: 0.8"/>
      </g>
     </g>
    </g>
    <g id="xtick_7">
     <g id="line2d_13">
      <path d="M 681.221025 175.68 
L 681.221025 25.44 
" clip-path="url(#pd756c66bd3)" style="fill: none; stroke: #b0b0b0; stroke-opacity: 0.3; stroke-width: 0.8; stroke-linecap: square"/>
     </g>
     <g id="line2d_14">
      <g>
       <use xlink:href="#m69db159c1d" x="681.221025" y="175.68" style="stroke: #000000; stroke-width: 0.8"/>
      </g>
     </g>
    </g>
   </g>
   <g id="matplotlib.axis_2">
    <g id="ytick_1">
     <g id="line2d_15">
      <path d="M 49.538 153.232555 
L 709.2 153.232555 
" clip-path="url(#pd756c66bd3)" style="fill: none; stroke: #b0b0b0; stroke-opacity: 0.3; stroke-width: 0.8; stroke-linecap: square"/>
     </g>
     <g id="line2d_16">
      <defs>
       <path id="m5823f3aec7" d="M 0 0 
L -3.5 0 
" style="stroke: #000000; stroke-width: 0.8"/>
      </defs>
      <g>
       <use xlink:href="#m5823f3aec7" x="49.538" y="153.232555" style="stroke: #000000; stroke-width: 0.8"/>
      </g>
     </g>
     <g id="text_1">
      <!-- 0.2 -->
      <g transform="translate(26.634875 157.031773) scale(0.1 -0.1)">
       <defs>
        <path id="DejaVuSans-30" d="M 2034 4250 
Q 1547 4250 1301 3770 
Q 1056 3291 1056 2328 
Q 1056 1369 1301 889 
Q 1547 409 2034 409 
Q 2525 409 2770 889 
Q 3016 1369 3016 2328 
Q 3016 3291 2770 3770 
Q 2525 4250 2034 4250 
z
M 2034 4750 
Q 2819 4750 3233 4129 
Q 3647 3509 3647 2328 
Q 3647 1150 3233 529 
Q 2819 -91 2034 -91 
Q 1250 -91 836 529 
Q 422 1150 422 2328 
Q 422 3509 836 4129 
Q 1250 4750 2034 4750 
z
" transform="scale(0.015625)"/>
        <path id="DejaVuSans-2e" d="M 684 794 
L 1344 794 
L 1344 0 
L 684 0 
L 684 794 
z
" transform="scale(0.015625)"/>
        <path id="DejaVuSans-32" d="M 1228 531 
L 3431 531 
L 3431 0 
L 469 0 
L 469 531 
Q 828 903 1448 1529 
Q 2069 2156 2228 2338 
Q 2531 2678 2651 2914 
Q 2772 3150 2772 3378 
Q 2772 3750 2511 3984 
Q 2250 4219 1831 4219 
Q 1534 4219 1204 4116 
Q 875 4013 500 3803 
L 500 4441 
Q 881 4594 1212 4672 
Q 1544 4750 1819 4750 
Q 2544 4750 2975 4387 
Q 3406 4025 3406 3419 
Q 3406 3131 3298 2873 
Q 3191 2616 2906 2266 
Q 2828 2175 2409 1742 
Q 1991 1309 1228 531 
z
" transform="scale(0.015625)"/>
       </defs>
       <use xlink:href="#DejaVuSans-30"/>
       <use xlink:href="#DejaVuSans-2e" transform="translate(63.623047 0)"/>
       <use xlink:href="#DejaVuSans-32" transform="translate(95.410156 0)"/>
      </g>
     </g>
    </g>
    <g id="ytick_2">
     <g id="line2d_17">
      <path d="M 49.538 121.125591 
L 709.2 121.125591 
" clip-path="url(#pd756c66bd3)" style="fill: none; stroke: #b0b0b0; stroke-opacity: 0.3; stroke-width: 0.8; stroke-linecap: square"/>
     </g>
     <g id="line2d_18">
      <g>
       <use xlink:href="#m5823f3aec7" x="49.538" y="121.125591" style="stroke: #000000; stroke-width: 0.8"/>
      </g>
     </g>
     <g id="text_2">
      <!-- 0.4 -->
      <g transform="translate(26.634875 124.924809) scale(0.1 -0.1)">
       <defs>
        <path id="DejaVuSans-34" d="M 2419 4116 
L 825 1625 
L 2419 1625 
L 2419 4116 
z
M 2253 4666 
L 3047 4666 
L 3047 1625 
L 3713 1625 
L 3713 1100 
L 3047 1100 
L 3047 0 
L 2419 0 
L 2419 1100 
L 313 1100 
L 313 1709 
L 2253 4666 
z
" transform="scale(0.015625)"/>
       </defs>
       <use xlink:href="#DejaVuSans-30"/>
       <use xlink:href="#DejaVuSans-2e" transform="translate(63.623047 0)"/>
       <use xlink:href="#DejaVuSans-34" transform="translate(95.410156 0)"/>
      </g>
     </g>
    </g>
    <g id="ytick_3">
     <g id="line2d_19">
      <path d="M 49.538 89.018627 
L 709.2 89.018627 
" clip-path="url(#pd756c66bd3)" style="fill: none; stroke: #b0b0b0; stroke-opacity: 0.3; stroke-width: 0.8; stroke-linecap: square"/>
     </g>
     <g id="line2d_20">
      <g>
       <use xlink:href="#m5823f3aec7" x="49.538" y="89.018627" style="stroke: #000000; stroke-width: 0.8"/>
      </g>
     </g>
     <g id="text_3">
      <!-- 0.6 -->
      <g transform="translate(26.634875 92.817846) scale(0.1 -0.1)">
       <defs>
        <path id="DejaVuSans-36" d="M 2113 2584 
Q 1688 2584 1439 2293 
Q 1191 2003 1191 1497 
Q 1191 994 1439 701 
Q 1688 409 2113 409 
Q 2538 409 2786 701 
Q 3034 994 3034 1497 
Q 3034 2003 2786 2293 
Q 2538 2584 2113 2584 
z
M 3366 4563 
L 3366 3988 
Q 3128 4100 2886 4159 
Q 2644 4219 2406 4219 
Q 1781 4219 1451 3797 
Q 1122 3375 1075 2522 
Q 1259 2794 1537 2939 
Q 1816 3084 2150 3084 
Q 2853 3084 3261 2657 
Q 3669 2231 3669 1497 
Q 3669 778 3244 343 
Q 2819 -91 2113 -91 
Q 1303 -91 875 529 
Q 447 1150 447 2328 
Q 447 3434 972 4092 
Q 1497 4750 2381 4750 
Q 2619 4750 2861 4703 
Q 3103 4656 3366 4563 
z
" transform="scale(0.015625)"/>
       </defs>
       <use xlink:href="#DejaVuSans-30"/>
       <use xlink:href="#DejaVuSans-2e" transform="translate(63.623047 0)"/>
       <use xlink:href="#DejaVuSans-36" transform="translate(95.410156 0)"/>
      </g>
     </g>
    </g>
    <g id="ytick_4">
     <g id="line2d_21">
      <path d="M 49.538 56.911663 
L 709.2 56.911663 
" clip-path="url(#pd756c66bd3)" style="fill: none; stroke: #b0b0b0; stroke-opacity: 0.3; stroke-width: 0.8; stroke-linecap: square"/>
     </g>
     <g id="line2d_22">
      <g>
       <use xlink:href="#m5823f3aec7" x="49.538" y="56.911663" style="stroke: #000000; stroke-width: 0.8"/>
      </g>
     </g>
     <g id="text_4">
      <!-- 0.8 -->
      <g transform="translate(26.634875 60.710882) scale(0.1 -0.1)">
       <defs>
        <path id="DejaVuSans-38" d="M 2034 2216 
Q 1584 2216 1326 1975 
Q 1069 1734 1069 1313 
Q 1069 891 1326 650 
Q 1584 409 2034 409 
Q 2484 409 2743 651 
Q 3003 894 3003 1313 
Q 3003 1734 2745 1975 
Q 2488 2216 2034 2216 
z
M 1403 2484 
Q 997 2584 770 2862 
Q 544 3141 544 3541 
Q 544 4100 942 4425 
Q 1341 4750 2034 4750 
Q 2731 4750 3128 4425 
Q 3525 4100 3525 3541 
Q 3525 3141 3298 2862 
Q 3072 2584 2669 2484 
Q 3125 2378 3379 2068 
Q 3634 1759 3634 1313 
Q 3634 634 3220 271 
Q 2806 -91 2034 -91 
Q 1263 -91 848 271 
Q 434 634 434 1313 
Q 434 1759 690 2068 
Q 947 2378 1403 2484 
z
M 1172 3481 
Q 1172 3119 1398 2916 
Q 1625 2713 2034 2713 
Q 2441 2713 2670 2916 
Q 2900 3119 2900 3481 
Q 2900 3844 2670 4047 
Q 2441 4250 2034 4250 
Q 1625 4250 1398 4047 
Q 1172 3844 1172 3481 
z
" transform="scale(0.015625)"/>
       </defs>
       <use xlink:href="#DejaVuSans-30"/>
       <use xlink:href="#DejaVuSans-2e" transform="translate(63.623047 0)"/>
       <use xlink:href="#DejaVuSans-38" transform="translate(95.410156 0)"/>
      </g>
     </g>
    </g>
    <g id="text_5">
     <!-- $\partial o/\partial v$ -->
     <g transform="translate(20.555188 113.46) rotate(-90) scale(0.1 -0.1)">
      <defs>
       <path id="DejaVuSans-2202" d="M 1366 -91 
Q 925 -91 638 175 
Q 297 491 297 1063 
Q 297 1656 597 2119 
Q 906 2594 1463 2594 
Q 1828 2594 2116 2366 
Q 2284 2231 2400 2006 
Q 2441 2259 2441 2547 
Q 2441 2969 2341 3213 
Q 2119 3753 1531 3753 
Q 1309 3753 966 3616 
L 966 4141 
Q 1328 4238 1653 4238 
Q 2491 4238 2847 3469 
Q 3013 3106 3013 2566 
Q 3013 2213 2934 1803 
Q 2738 778 2228 291 
Q 1828 -91 1366 -91 
z
M 831 969 
Q 831 656 969 488 
Q 1116 309 1341 309 
Q 1541 309 1700 450 
Q 1925 644 2091 959 
Q 2228 1219 2297 1497 
Q 2019 2169 1538 2169 
Q 1125 2169 944 1625 
Q 831 1288 831 969 
z
" transform="scale(0.015625)"/>
       <path id="DejaVuSans-Oblique-6f" d="M 1625 -91 
Q 1009 -91 651 289 
Q 294 669 294 1325 
Q 294 1706 417 2101 
Q 541 2497 738 2766 
Q 1047 3184 1428 3384 
Q 1809 3584 2291 3584 
Q 2888 3584 3255 3212 
Q 3622 2841 3622 2241 
Q 3622 1825 3500 1412 
Q 3378 1000 3181 728 
Q 2875 309 2494 109 
Q 2113 -91 1625 -91 
z
M 891 1344 
Q 891 869 1089 633 
Q 1288 397 1691 397 
Q 2269 397 2648 901 
Q 3028 1406 3028 2181 
Q 3028 2634 2825 2865 
Q 2622 3097 2228 3097 
Q 1903 3097 1650 2945 
Q 1397 2794 1197 2484 
Q 1050 2253 970 1956 
Q 891 1659 891 1344 
z
" transform="scale(0.015625)"/>
       <path id="DejaVuSans-2f" d="M 1625 4666 
L 2156 4666 
L 531 -594 
L 0 -594 
L 1625 4666 
z
" transform="scale(0.015625)"/>
       <path id="DejaVuSans-Oblique-76" d="M 459 3500 
L 1069 3500 
L 1581 525 
L 3256 3500 
L 3866 3500 
L 1875 0 
L 1100 0 
L 459 3500 
z
" transform="scale(0.015625)"/>
      </defs>
      <use xlink:href="#DejaVuSans-2202" transform="translate(0 0.09375)"/>
      <use xlink:href="#DejaVuSans-Oblique-6f" transform="translate(51.708984 0.09375)"/>
      <use xlink:href="#DejaVuSans-2f" transform="translate(112.890625 0.09375)"/>
      <use xlink:href="#DejaVuSans-2202" transform="translate(146.582031 0.09375)"/>
      <use xlink:href="#DejaVuSans-Oblique-76" transform="translate(198.291016 0.09375)"/>
     </g>
    </g>
   </g>
   <g id="line2d_23">
    <path d="M 79.522636 167.212665 
L 83.533959 166.965515 
L 85.53962 167.901522 
L 89.550943 167.801903 
L 97.573588 167.780953 
L 99.579249 106.554519 
L 101.584911 117.485282 
L 103.590572 123.239551 
L 105.596233 131.057681 
L 107.601894 134.767812 
L 111.613217 142.971101 
L 115.62454 149.001673 
L 119.635862 152.001315 
L 123.647185 155.703317 
L 125.652846 156.631923 
L 127.658507 157.154486 
L 129.664169 158.117299 
L 131.66983 158.745105 
L 133.675491 159.642784 
L 137.686814 160.967759 
L 139.692475 161.3817 
L 141.698137 162.398247 
L 143.703798 162.570572 
L 145.709459 163.023813 
L 147.71512 163.24396 
L 149.720782 163.671255 
L 151.726443 163.853639 
L 153.732104 164.448497 
L 155.737766 164.310911 
L 157.743427 165.042533 
L 159.749088 165.509034 
L 161.754749 165.582263 
L 163.760411 165.307518 
L 165.766072 165.382937 
L 167.771733 165.599566 
L 169.777395 166.116146 
L 173.788717 166.349884 
L 175.794379 165.980823 
L 177.80004 165.917697 
L 179.805701 166.429449 
L 181.811362 165.967265 
L 185.822685 166.496199 
L 187.828346 166.179009 
L 193.84533 166.473244 
L 197.856653 166.141431 
L 199.862314 166.591293 
L 201.867975 166.131832 
L 203.873637 165.972629 
L 207.884959 166.481174 
L 209.890621 156.079828 
L 211.896282 157.052873 
L 215.907604 159.380861 
L 217.913266 159.72954 
L 219.918927 160.227813 
L 221.924588 160.971763 
L 223.93025 161.221585 
L 225.935911 161.216751 
L 227.941572 162.107604 
L 229.947234 162.731285 
L 233.958556 162.89728 
L 235.964217 163.1709 
L 237.969879 163.116086 
L 239.97554 59.527112 
L 241.981201 76.648694 
L 243.986863 87.852532 
L 245.992524 94.178047 
L 247.998185 101.812995 
L 252.009508 113.181406 
L 256.02083 121.577728 
L 258.026492 123.101256 
L 260.032153 123.831833 
L 262.037814 126.370102 
L 264.043476 128.234706 
L 266.049137 130.384024 
L 268.054798 130.903331 
L 270.060459 131.931586 
L 272.066121 131.013589 
L 274.071782 133.458041 
L 276.077443 133.943586 
L 278.083105 134.297989 
L 280.088766 135.531099 
L 282.094427 135.616001 
L 284.100088 137.85502 
L 286.10575 136.159522 
L 288.111411 138.231543 
L 290.117072 137.796482 
L 292.122734 139.454209 
L 294.128395 138.726243 
L 296.134056 139.568444 
L 300.145379 140.142136 
L 302.15104 139.434885 
L 304.156701 140.153468 
L 306.162363 143.192339 
L 308.168024 143.972598 
L 310.173685 143.899549 
L 312.179347 144.353036 
L 314.185008 143.76494 
L 316.190669 142.99044 
L 318.19633 143.26639 
L 320.201992 144.644567 
L 322.207653 143.524103 
L 324.213314 142.699396 
L 326.218976 143.128271 
L 328.224637 141.390161 
L 330.230298 141.968652 
L 332.23596 143.188889 
L 334.241621 143.457206 
L 336.247282 142.639555 
L 338.252943 143.621434 
L 340.258605 142.022213 
L 342.264266 143.028628 
L 344.269927 142.337073 
L 346.275589 142.045707 
L 348.28125 142.397778 
L 350.286911 141.617892 
L 352.292573 143.189727 
L 354.298234 142.1323 
L 356.303895 142.397636 
L 358.309556 143.062212 
L 360.315218 142.551205 
L 362.320879 141.784105 
L 364.32654 141.316388 
L 366.332202 139.69806 
L 368.337863 139.02975 
L 370.343524 138.184548 
L 372.349185 139.229356 
L 374.354847 139.549853 
L 376.360508 139.401248 
L 378.366169 139.8297 
L 380.371831 139.918027 
L 382.377492 139.880224 
L 384.383153 139.437019 
L 386.388815 139.943788 
L 388.394476 140.645356 
L 392.405798 142.756528 
L 394.41146 141.87979 
L 396.417121 142.18231 
L 398.422782 141.679469 
L 400.428444 143.069168 
L 402.434105 144.836583 
L 404.439766 145.700224 
L 408.451089 143.892859 
L 410.45675 143.699222 
L 412.462411 144.468748 
L 414.468073 144.624388 
L 418.479395 145.20292 
L 420.485057 147.141691 
L 422.490718 147.655566 
L 424.496379 147.643719 
L 426.50204 146.353535 
L 428.507702 146.15684 
L 430.513363 144.986283 
L 432.519024 145.317066 
L 434.524686 145.511181 
L 436.530347 148.416624 
L 440.54167 147.32193 
L 442.547331 145.843912 
L 444.552992 146.182488 
L 446.558653 146.047473 
L 448.564315 146.537995 
L 450.569976 147.33914 
L 452.575637 147.731394 
L 454.581299 147.827295 
L 456.58696 146.656765 
L 458.592621 146.563895 
L 460.598282 147.076029 
L 464.609605 146.584359 
L 466.615266 147.009298 
L 468.620928 146.021765 
L 470.626589 147.402238 
L 472.63225 147.423973 
L 474.637912 146.788841 
L 476.643573 147.685239 
L 478.649234 147.265831 
L 480.654895 32.269091 
L 482.660557 47.184806 
L 484.666218 68.312104 
L 486.671879 80.805373 
L 488.677541 84.806161 
L 492.688863 97.279144 
L 494.694524 101.441122 
L 496.700186 104.434089 
L 498.705847 110.124006 
L 500.711508 114.134046 
L 502.71717 116.832922 
L 504.722831 120.371778 
L 506.728492 122.803882 
L 508.734154 122.780215 
L 510.739815 126.15441 
L 514.751137 123.97095 
L 516.756799 128.210923 
L 518.76246 129.792372 
L 520.768121 130.599854 
L 522.773783 132.695821 
L 524.779444 134.526881 
L 526.785105 135.60161 
L 528.790766 135.509409 
L 530.796428 136.786621 
L 532.802089 135.433587 
L 534.80775 135.84927 
L 536.813412 136.657151 
L 538.819073 135.726419 
L 540.824734 135.751201 
L 542.830396 164.93352 
L 544.836057 165.210196 
L 546.841718 164.850021 
L 548.847379 164.801917 
L 550.853041 165.052822 
L 552.858702 165.667355 
L 554.864363 165.691922 
L 558.875686 166.66323 
L 560.881347 166.789723 
L 562.887009 166.766032 
L 564.89267 166.4878 
L 566.898331 166.483006 
L 568.903992 166.342395 
L 570.909654 166.735064 
L 574.920976 166.807566 
L 576.926638 166.635317 
L 578.932299 166.663583 
L 580.93796 47.66235 
L 582.943621 167.621628 
L 586.954944 167.428725 
L 588.960605 167.728738 
L 590.966267 167.673188 
L 592.971928 167.737172 
L 594.977589 168.158396 
L 596.983251 167.898876 
L 605.005896 168.094983 
L 607.011557 167.710505 
L 609.017218 167.735944 
L 611.02288 167.610203 
L 613.028541 167.274875 
L 615.034202 167.159808 
L 617.039863 166.918345 
L 619.045525 167.074861 
L 621.051186 166.91183 
L 623.056847 166.965215 
L 625.062509 166.731267 
L 629.073831 167.25477 
L 631.079493 166.959284 
L 639.102138 167.35436 
L 641.107799 167.039153 
L 643.11346 167.37368 
L 645.119122 167.418143 
L 647.124783 167.340237 
L 649.130444 167.375888 
L 653.141767 167.774138 
L 655.147428 167.657362 
L 657.153089 167.887055 
L 659.158751 167.712598 
L 661.164412 168.050321 
L 663.170073 168.141392 
L 665.175735 168.093013 
L 667.181396 168.336391 
L 669.187057 168.13847 
L 671.192718 168.102666 
L 675.204041 168.581545 
L 677.209702 168.850909 
L 679.215364 168.75775 
L 679.215364 168.75775 
" clip-path="url(#pd756c66bd3)" style="fill: none; stroke: #d62728; stroke-width: 2.2; stroke-linecap: square"/>
   </g>
   <g id="patch_3">
    <path d="M 49.538 175.68 
L 49.538 25.44 
" style="fill: none; stroke: #000000; stroke-width: 0.8; stroke-linejoin: miter; stroke-linecap: square"/>
   </g>
   <g id="patch_4">
    <path d="M 709.2 175.68 
L 709.2 25.44 
" style="fill: none; stroke: #000000; stroke-width: 0.8; stroke-linejoin: miter; stroke-linecap: square"/>
   </g>
   <g id="patch_5">
    <path d="M 49.538 175.68 
L 709.2 175.68 
" style="fill: none; stroke: #000000; stroke-width: 0.8; stroke-linejoin: miter; stroke-linecap: square"/>
   </g>
   <g id="patch_6">
    <path d="M 49.538 25.44 
L 709.2 25.44 
" style="fill: none; stroke: #000000; stroke-width: 0.8; stroke-linejoin: miter; stroke-linecap: square"/>
   </g>
   <g id="text_6">
    <!-- Soma: surrogate gradient -->
    <g transform="translate(302.434937 19.44) scale(0.12 -0.12)">
     <defs>
      <path id="DejaVuSans-53" d="M 3425 4513 
L 3425 3897 
Q 3066 4069 2747 4153 
Q 2428 4238 2131 4238 
Q 1616 4238 1336 4038 
Q 1056 3838 1056 3469 
Q 1056 3159 1242 3001 
Q 1428 2844 1947 2747 
L 2328 2669 
Q 3034 2534 3370 2195 
Q 3706 1856 3706 1288 
Q 3706 609 3251 259 
Q 2797 -91 1919 -91 
Q 1588 -91 1214 -16 
Q 841 59 441 206 
L 441 856 
Q 825 641 1194 531 
Q 1563 422 1919 422 
Q 2459 422 2753 634 
Q 3047 847 3047 1241 
Q 3047 1584 2836 1778 
Q 2625 1972 2144 2069 
L 1759 2144 
Q 1053 2284 737 2584 
Q 422 2884 422 3419 
Q 422 4038 858 4394 
Q 1294 4750 2059 4750 
Q 2388 4750 2728 4690 
Q 3069 4631 3425 4513 
z
" transform="scale(0.015625)"/>
      <path id="DejaVuSans-6f" d="M 1959 3097 
Q 1497 3097 1228 2736 
Q 959 2375 959 1747 
Q 959 1119 1226 758 
Q 1494 397 1959 397 
Q 2419 397 2687 759 
Q 2956 1122 2956 1747 
Q 2956 2369 2687 2733 
Q 2419 3097 1959 3097 
z
M 1959 3584 
Q 2709 3584 3137 3096 
Q 3566 2609 3566 1747 
Q 3566 888 3137 398 
Q 2709 -91 1959 -91 
Q 1206 -91 779 398 
Q 353 888 353 1747 
Q 353 2609 779 3096 
Q 1206 3584 1959 3584 
z
" transform="scale(0.015625)"/>
      <path id="DejaVuSans-6d" d="M 3328 2828 
Q 3544 3216 3844 3400 
Q 4144 3584 4550 3584 
Q 5097 3584 5394 3201 
Q 5691 2819 5691 2113 
L 5691 0 
L 5113 0 
L 5113 2094 
Q 5113 2597 4934 2840 
Q 4756 3084 4391 3084 
Q 3944 3084 3684 2787 
Q 3425 2491 3425 1978 
L 3425 0 
L 2847 0 
L 2847 2094 
Q 2847 2600 2669 2842 
Q 2491 3084 2119 3084 
Q 1678 3084 1418 2786 
Q 1159 2488 1159 1978 
L 1159 0 
L 581 0 
L 581 3500 
L 1159 3500 
L 1159 2956 
Q 1356 3278 1631 3431 
Q 1906 3584 2284 3584 
Q 2666 3584 2933 3390 
Q 3200 3197 3328 2828 
z
" transform="scale(0.015625)"/>
      <path id="DejaVuSans-61" d="M 2194 1759 
Q 1497 1759 1228 1600 
Q 959 1441 959 1056 
Q 959 750 1161 570 
Q 1363 391 1709 391 
Q 2188 391 2477 730 
Q 2766 1069 2766 1631 
L 2766 1759 
L 2194 1759 
z
M 3341 1997 
L 3341 0 
L 2766 0 
L 2766 531 
Q 2569 213 2275 61 
Q 1981 -91 1556 -91 
Q 1019 -91 701 211 
Q 384 513 384 1019 
Q 384 1609 779 1909 
Q 1175 2209 1959 2209 
L 2766 2209 
L 2766 2266 
Q 2766 2663 2505 2880 
Q 2244 3097 1772 3097 
Q 1472 3097 1187 3025 
Q 903 2953 641 2809 
L 641 3341 
Q 956 3463 1253 3523 
Q 1550 3584 1831 3584 
Q 2591 3584 2966 3190 
Q 3341 2797 3341 1997 
z
" transform="scale(0.015625)"/>
      <path id="DejaVuSans-3a" d="M 750 794 
L 1409 794 
L 1409 0 
L 750 0 
L 750 794 
z
M 750 3309 
L 1409 3309 
L 1409 2516 
L 750 2516 
L 750 3309 
z
" transform="scale(0.015625)"/>
      <path id="DejaVuSans-20" transform="scale(0.015625)"/>
      <path id="DejaVuSans-73" d="M 2834 3397 
L 2834 2853 
Q 2591 2978 2328 3040 
Q 2066 3103 1784 3103 
Q 1356 3103 1142 2972 
Q 928 2841 928 2578 
Q 928 2378 1081 2264 
Q 1234 2150 1697 2047 
L 1894 2003 
Q 2506 1872 2764 1633 
Q 3022 1394 3022 966 
Q 3022 478 2636 193 
Q 2250 -91 1575 -91 
Q 1294 -91 989 -36 
Q 684 19 347 128 
L 347 722 
Q 666 556 975 473 
Q 1284 391 1588 391 
Q 1994 391 2212 530 
Q 2431 669 2431 922 
Q 2431 1156 2273 1281 
Q 2116 1406 1581 1522 
L 1381 1569 
Q 847 1681 609 1914 
Q 372 2147 372 2553 
Q 372 3047 722 3315 
Q 1072 3584 1716 3584 
Q 2034 3584 2315 3537 
Q 2597 3491 2834 3397 
z
" transform="scale(0.015625)"/>
      <path id="DejaVuSans-75" d="M 544 1381 
L 544 3500 
L 1119 3500 
L 1119 1403 
Q 1119 906 1312 657 
Q 1506 409 1894 409 
Q 2359 409 2629 706 
Q 2900 1003 2900 1516 
L 2900 3500 
L 3475 3500 
L 3475 0 
L 2900 0 
L 2900 538 
Q 2691 219 2414 64 
Q 2138 -91 1772 -91 
Q 1169 -91 856 284 
Q 544 659 544 1381 
z
M 1991 3584 
L 1991 3584 
z
" transform="scale(0.015625)"/>
      <path id="DejaVuSans-72" d="M 2631 2963 
Q 2534 3019 2420 3045 
Q 2306 3072 2169 3072 
Q 1681 3072 1420 2755 
Q 1159 2438 1159 1844 
L 1159 0 
L 581 0 
L 581 3500 
L 1159 3500 
L 1159 2956 
Q 1341 3275 1631 3429 
Q 1922 3584 2338 3584 
Q 2397 3584 2469 3576 
Q 2541 3569 2628 3553 
L 2631 2963 
z
" transform="scale(0.015625)"/>
      <path id="DejaVuSans-67" d="M 2906 1791 
Q 2906 2416 2648 2759 
Q 2391 3103 1925 3103 
Q 1463 3103 1205 2759 
Q 947 2416 947 1791 
Q 947 1169 1205 825 
Q 1463 481 1925 481 
Q 2391 481 2648 825 
Q 2906 1169 2906 1791 
z
M 3481 434 
Q 3481 -459 3084 -895 
Q 2688 -1331 1869 -1331 
Q 1566 -1331 1297 -1286 
Q 1028 -1241 775 -1147 
L 775 -588 
Q 1028 -725 1275 -790 
Q 1522 -856 1778 -856 
Q 2344 -856 2625 -561 
Q 2906 -266 2906 331 
L 2906 616 
Q 2728 306 2450 153 
Q 2172 0 1784 0 
Q 1141 0 747 490 
Q 353 981 353 1791 
Q 353 2603 747 3093 
Q 1141 3584 1784 3584 
Q 2172 3584 2450 3431 
Q 2728 3278 2906 2969 
L 2906 3500 
L 3481 3500 
L 3481 434 
z
" transform="scale(0.015625)"/>
      <path id="DejaVuSans-74" d="M 1172 4494 
L 1172 3500 
L 2356 3500 
L 2356 3053 
L 1172 3053 
L 1172 1153 
Q 1172 725 1289 603 
Q 1406 481 1766 481 
L 2356 481 
L 2356 0 
L 1766 0 
Q 1100 0 847 248 
Q 594 497 594 1153 
L 594 3053 
L 172 3053 
L 172 3500 
L 594 3500 
L 594 4494 
L 1172 4494 
z
" transform="scale(0.015625)"/>
      <path id="DejaVuSans-65" d="M 3597 1894 
L 3597 1613 
L 953 1613 
Q 991 1019 1311 708 
Q 1631 397 2203 397 
Q 2534 397 2845 478 
Q 3156 559 3463 722 
L 3463 178 
Q 3153 47 2828 -22 
Q 2503 -91 2169 -91 
Q 1331 -91 842 396 
Q 353 884 353 1716 
Q 353 2575 817 3079 
Q 1281 3584 2069 3584 
Q 2775 3584 3186 3129 
Q 3597 2675 3597 1894 
z
M 3022 2063 
Q 3016 2534 2758 2815 
Q 2500 3097 2075 3097 
Q 1594 3097 1305 2825 
Q 1016 2553 972 2059 
L 3022 2063 
z
" transform="scale(0.015625)"/>
      <path id="DejaVuSans-64" d="M 2906 2969 
L 2906 4863 
L 3481 4863 
L 3481 0 
L 2906 0 
L 2906 525 
Q 2725 213 2448 61 
Q 2172 -91 1784 -91 
Q 1150 -91 751 415 
Q 353 922 353 1747 
Q 353 2572 751 3078 
Q 1150 3584 1784 3584 
Q 2172 3584 2448 3432 
Q 2725 3281 2906 2969 
z
M 947 1747 
Q 947 1113 1208 752 
Q 1469 391 1925 391 
Q 2381 391 2643 752 
Q 2906 1113 2906 1747 
Q 2906 2381 2643 2742 
Q 2381 3103 1925 3103 
Q 1469 3103 1208 2742 
Q 947 2381 947 1747 
z
" transform="scale(0.015625)"/>
      <path id="DejaVuSans-69" d="M 603 3500 
L 1178 3500 
L 1178 0 
L 603 0 
L 603 3500 
z
M 603 4863 
L 1178 4863 
L 1178 4134 
L 603 4134 
L 603 4863 
z
" transform="scale(0.015625)"/>
      <path id="DejaVuSans-6e" d="M 3513 2113 
L 3513 0 
L 2938 0 
L 2938 2094 
Q 2938 2591 2744 2837 
Q 2550 3084 2163 3084 
Q 1697 3084 1428 2787 
Q 1159 2491 1159 1978 
L 1159 0 
L 581 0 
L 581 3500 
L 1159 3500 
L 1159 2956 
Q 1366 3272 1645 3428 
Q 1925 3584 2291 3584 
Q 2894 3584 3203 3211 
Q 3513 2838 3513 2113 
z
" transform="scale(0.015625)"/>
     </defs>
     <use xlink:href="#DejaVuSans-53"/>
     <use xlink:href="#DejaVuSans-6f" transform="translate(63.476562 0)"/>
     <use xlink:href="#DejaVuSans-6d" transform="translate(124.658203 0)"/>
     <use xlink:href="#DejaVuSans-61" transform="translate(222.070312 0)"/>
     <use xlink:href="#DejaVuSans-3a" transform="translate(283.349609 0)"/>
     <use xlink:href="#DejaVuSans-20" transform="translate(317.041016 0)"/>
     <use xlink:href="#DejaVuSans-73" transform="translate(348.828125 0)"/>
     <use xlink:href="#DejaVuSans-75" transform="translate(400.927734 0)"/>
     <use xlink:href="#DejaVuSans-72" transform="translate(464.306641 0)"/>
     <use xlink:href="#DejaVuSans-72" transform="translate(503.669922 0)"/>
     <use xlink:href="#DejaVuSans-6f" transform="translate(542.533203 0)"/>
     <use xlink:href="#DejaVuSans-67" transform="translate(603.714844 0)"/>
     <use xlink:href="#DejaVuSans-61" transform="translate(667.191406 0)"/>
     <use xlink:href="#DejaVuSans-74" transform="translate(728.470703 0)"/>
     <use xlink:href="#DejaVuSans-65" transform="translate(767.679688 0)"/>
     <use xlink:href="#DejaVuSans-20" transform="translate(829.203125 0)"/>
     <use xlink:href="#DejaVuSans-67" transform="translate(860.990234 0)"/>
     <use xlink:href="#DejaVuSans-72" transform="translate(924.466797 0)"/>
     <use xlink:href="#DejaVuSans-61" transform="translate(965.580078 0)"/>
     <use xlink:href="#DejaVuSans-64" transform="translate(1026.859375 0)"/>
     <use xlink:href="#DejaVuSans-69" transform="translate(1090.335938 0)"/>
     <use xlink:href="#DejaVuSans-65" transform="translate(1118.119141 0)"/>
     <use xlink:href="#DejaVuSans-6e" transform="translate(1179.642578 0)"/>
     <use xlink:href="#DejaVuSans-74" transform="translate(1243.021484 0)"/>
    </g>
   </g>
  </g>
  <g id="axes_2">
   <g id="patch_7">
    <path d="M 49.538 354.86 
L 709.2 354.86 
L 709.2 204.62 
L 49.538 204.62 
z
" style="fill: #ffffff"/>
   </g>
   <g id="matplotlib.axis_3">
    <g id="xtick_8">
     <g id="line2d_24">
      <path d="M 79.522636 354.86 
L 79.522636 204.62 
" clip-path="url(#p5a7c9ab34e)" style="fill: none; stroke: #b0b0b0; stroke-opacity: 0.3; stroke-width: 0.8; stroke-linecap: square"/>
     </g>
     <g id="line2d_25">
      <g>
       <use xlink:href="#m69db159c1d" x="79.522636" y="354.86" style="stroke: #000000; stroke-width: 0.8"/>
      </g>
     </g>
    </g>
    <g id="xtick_9">
     <g id="line2d_26">
      <path d="M 179.805701 354.86 
L 179.805701 204.62 
" clip-path="url(#p5a7c9ab34e)" style="fill: none; stroke: #b0b0b0; stroke-opacity: 0.3; stroke-width: 0.8; stroke-linecap: square"/>
     </g>
     <g id="line2d_27">
      <g>
       <use xlink:href="#m69db159c1d" x="179.805701" y="354.86" style="stroke: #000000; stroke-width: 0.8"/>
      </g>
     </g>
    </g>
    <g id="xtick_10">
     <g id="line2d_28">
      <path d="M 280.088766 354.86 
L 280.088766 204.62 
" clip-path="url(#p5a7c9ab34e)" style="fill: none; stroke: #b0b0b0; stroke-opacity: 0.3; stroke-width: 0.8; stroke-linecap: square"/>
     </g>
     <g id="line2d_29">
      <g>
       <use xlink:href="#m69db159c1d" x="280.088766" y="354.86" style="stroke: #000000; stroke-width: 0.8"/>
      </g>
     </g>
    </g>
    <g id="xtick_11">
     <g id="line2d_30">
      <path d="M 380.371831 354.86 
L 380.371831 204.62 
" clip-path="url(#p5a7c9ab34e)" style="fill: none; stroke: #b0b0b0; stroke-opacity: 0.3; stroke-width: 0.8; stroke-linecap: square"/>
     </g>
     <g id="line2d_31">
      <g>
       <use xlink:href="#m69db159c1d" x="380.371831" y="354.86" style="stroke: #000000; stroke-width: 0.8"/>
      </g>
     </g>
    </g>
    <g id="xtick_12">
     <g id="line2d_32">
      <path d="M 480.654895 354.86 
L 480.654895 204.62 
" clip-path="url(#p5a7c9ab34e)" style="fill: none; stroke: #b0b0b0; stroke-opacity: 0.3; stroke-width: 0.8; stroke-linecap: square"/>
     </g>
     <g id="line2d_33">
      <g>
       <use xlink:href="#m69db159c1d" x="480.654895" y="354.86" style="stroke: #000000; stroke-width: 0.8"/>
      </g>
     </g>
    </g>
    <g id="xtick_13">
     <g id="line2d_34">
      <path d="M 580.93796 354.86 
L 580.93796 204.62 
" clip-path="url(#p5a7c9ab34e)" style="fill: none; stroke: #b0b0b0; stroke-opacity: 0.3; stroke-width: 0.8; stroke-linecap: square"/>
     </g>
     <g id="line2d_35">
      <g>
       <use xlink:href="#m69db159c1d" x="580.93796" y="354.86" style="stroke: #000000; stroke-width: 0.8"/>
      </g>
     </g>
    </g>
    <g id="xtick_14">
     <g id="line2d_36">
      <path d="M 681.221025 354.86 
L 681.221025 204.62 
" clip-path="url(#p5a7c9ab34e)" style="fill: none; stroke: #b0b0b0; stroke-opacity: 0.3; stroke-width: 0.8; stroke-linecap: square"/>
     </g>
     <g id="line2d_37">
      <g>
       <use xlink:href="#m69db159c1d" x="681.221025" y="354.86" style="stroke: #000000; stroke-width: 0.8"/>
      </g>
     </g>
    </g>
   </g>
   <g id="matplotlib.axis_4">
    <g id="ytick_5">
     <g id="line2d_38">
      <path d="M 49.538 348.030909 
L 709.2 348.030909 
" clip-path="url(#p5a7c9ab34e)" style="fill: none; stroke: #b0b0b0; stroke-opacity: 0.3; stroke-width: 0.8; stroke-linecap: square"/>
     </g>
     <g id="line2d_39">
      <g>
       <use xlink:href="#m5823f3aec7" x="49.538" y="348.030909" style="stroke: #000000; stroke-width: 0.8"/>
      </g>
     </g>
     <g id="text_7">
      <!-- 0.0 -->
      <g transform="translate(26.634875 351.830128) scale(0.1 -0.1)">
       <use xlink:href="#DejaVuSans-30"/>
       <use xlink:href="#DejaVuSans-2e" transform="translate(63.623047 0)"/>
       <use xlink:href="#DejaVuSans-30" transform="translate(95.410156 0)"/>
      </g>
     </g>
    </g>
    <g id="ytick_6">
     <g id="line2d_40">
      <path d="M 49.538 320.714545 
L 709.2 320.714545 
" clip-path="url(#p5a7c9ab34e)" style="fill: none; stroke: #b0b0b0; stroke-opacity: 0.3; stroke-width: 0.8; stroke-linecap: square"/>
     </g>
     <g id="line2d_41">
      <g>
       <use xlink:href="#m5823f3aec7" x="49.538" y="320.714545" style="stroke: #000000; stroke-width: 0.8"/>
      </g>
     </g>
     <g id="text_8">
      <!-- 0.2 -->
      <g transform="translate(26.634875 324.513764) scale(0.1 -0.1)">
       <use xlink:href="#DejaVuSans-30"/>
       <use xlink:href="#DejaVuSans-2e" transform="translate(63.623047 0)"/>
       <use xlink:href="#DejaVuSans-32" transform="translate(95.410156 0)"/>
      </g>
     </g>
    </g>
    <g id="ytick_7">
     <g id="line2d_42">
      <path d="M 49.538 293.398182 
L 709.2 293.398182 
" clip-path="url(#p5a7c9ab34e)" style="fill: none; stroke: #b0b0b0; stroke-opacity: 0.3; stroke-width: 0.8; stroke-linecap: square"/>
     </g>
     <g id="line2d_43">
      <g>
       <use xlink:href="#m5823f3aec7" x="49.538" y="293.398182" style="stroke: #000000; stroke-width: 0.8"/>
      </g>
     </g>
     <g id="text_9">
      <!-- 0.4 -->
      <g transform="translate(26.634875 297.197401) scale(0.1 -0.1)">
       <use xlink:href="#DejaVuSans-30"/>
       <use xlink:href="#DejaVuSans-2e" transform="translate(63.623047 0)"/>
       <use xlink:href="#DejaVuSans-34" transform="translate(95.410156 0)"/>
      </g>
     </g>
    </g>
    <g id="ytick_8">
     <g id="line2d_44">
      <path d="M 49.538 266.081818 
L 709.2 266.081818 
" clip-path="url(#p5a7c9ab34e)" style="fill: none; stroke: #b0b0b0; stroke-opacity: 0.3; stroke-width: 0.8; stroke-linecap: square"/>
     </g>
     <g id="line2d_45">
      <g>
       <use xlink:href="#m5823f3aec7" x="49.538" y="266.081818" style="stroke: #000000; stroke-width: 0.8"/>
      </g>
     </g>
     <g id="text_10">
      <!-- 0.6 -->
      <g transform="translate(26.634875 269.881037) scale(0.1 -0.1)">
       <use xlink:href="#DejaVuSans-30"/>
       <use xlink:href="#DejaVuSans-2e" transform="translate(63.623047 0)"/>
       <use xlink:href="#DejaVuSans-36" transform="translate(95.410156 0)"/>
      </g>
     </g>
    </g>
    <g id="ytick_9">
     <g id="line2d_46">
      <path d="M 49.538 238.765455 
L 709.2 238.765455 
" clip-path="url(#p5a7c9ab34e)" style="fill: none; stroke: #b0b0b0; stroke-opacity: 0.3; stroke-width: 0.8; stroke-linecap: square"/>
     </g>
     <g id="line2d_47">
      <g>
       <use xlink:href="#m5823f3aec7" x="49.538" y="238.765455" style="stroke: #000000; stroke-width: 0.8"/>
      </g>
     </g>
     <g id="text_11">
      <!-- 0.8 -->
      <g transform="translate(26.634875 242.564673) scale(0.1 -0.1)">
       <use xlink:href="#DejaVuSans-30"/>
       <use xlink:href="#DejaVuSans-2e" transform="translate(63.623047 0)"/>
       <use xlink:href="#DejaVuSans-38" transform="translate(95.410156 0)"/>
      </g>
     </g>
    </g>
    <g id="ytick_10">
     <g id="line2d_48">
      <path d="M 49.538 211.449091 
L 709.2 211.449091 
" clip-path="url(#p5a7c9ab34e)" style="fill: none; stroke: #b0b0b0; stroke-opacity: 0.3; stroke-width: 0.8; stroke-linecap: square"/>
     </g>
     <g id="line2d_49">
      <g>
       <use xlink:href="#m5823f3aec7" x="49.538" y="211.449091" style="stroke: #000000; stroke-width: 0.8"/>
      </g>
     </g>
     <g id="text_12">
      <!-- 1.0 -->
      <g transform="translate(26.634875 215.24831) scale(0.1 -0.1)">
       <defs>
        <path id="DejaVuSans-31" d="M 794 531 
L 1825 531 
L 1825 4091 
L 703 3866 
L 703 4441 
L 1819 4666 
L 2450 4666 
L 2450 531 
L 3481 531 
L 3481 0 
L 794 0 
L 794 531 
z
" transform="scale(0.015625)"/>
       </defs>
       <use xlink:href="#DejaVuSans-31"/>
       <use xlink:href="#DejaVuSans-2e" transform="translate(63.623047 0)"/>
       <use xlink:href="#DejaVuSans-30" transform="translate(95.410156 0)"/>
      </g>
     </g>
    </g>
    <g id="text_13">
     <!-- $\partial v/\partial w_\mathrm{soma}$ -->
     <g transform="translate(20.555188 303.34) rotate(-90) scale(0.1 -0.1)">
      <defs>
       <path id="DejaVuSans-Oblique-77" d="M 544 3500 
L 1113 3500 
L 1259 684 
L 2566 3500 
L 3231 3500 
L 3425 684 
L 4666 3500 
L 5241 3500 
L 3641 0 
L 2969 0 
L 2797 2900 
L 1459 0 
L 781 0 
L 544 3500 
z
" transform="scale(0.015625)"/>
      </defs>
      <use xlink:href="#DejaVuSans-2202" transform="translate(0 0.09375)"/>
      <use xlink:href="#DejaVuSans-Oblique-76" transform="translate(51.708984 0.09375)"/>
      <use xlink:href="#DejaVuSans-2f" transform="translate(110.888672 0.09375)"/>
      <use xlink:href="#DejaVuSans-2202" transform="translate(144.580078 0.09375)"/>
      <use xlink:href="#DejaVuSans-Oblique-77" transform="translate(196.289062 0.09375)"/>
      <use xlink:href="#DejaVuSans-73" transform="translate(278.076172 -16.3125) scale(0.7)"/>
      <use xlink:href="#DejaVuSans-6f" transform="translate(314.545898 -16.3125) scale(0.7)"/>
      <use xlink:href="#DejaVuSans-6d" transform="translate(357.373047 -16.3125) scale(0.7)"/>
      <use xlink:href="#DejaVuSans-61" transform="translate(425.561523 -16.3125) scale(0.7)"/>
     </g>
    </g>
   </g>
   <g id="line2d_50">
    <path d="M 79.522636 348.030909 
L 97.573588 348.030909 
L 99.579249 211.449091 
L 101.584911 220.257664 
L 103.590572 228.498146 
L 105.596233 236.207174 
L 107.601894 243.419024 
L 109.607556 250.16576 
L 111.613217 256.477378 
L 113.618878 262.381942 
L 115.62454 267.905702 
L 117.630201 273.073218 
L 119.635862 277.907465 
L 121.641524 282.429938 
L 123.647185 286.660742 
L 125.652846 290.618689 
L 127.658507 294.321376 
L 129.664169 297.785266 
L 133.675491 304.057263 
L 137.686814 309.546347 
L 141.698137 314.350247 
L 145.709459 318.554493 
L 149.720782 322.233936 
L 153.732104 325.454086 
L 157.743427 328.272276 
L 161.754749 330.738681 
L 165.766072 332.897212 
L 169.777395 334.786301 
L 173.788717 336.439582 
L 177.80004 337.886489 
L 181.811362 339.152783 
L 187.828346 340.762114 
L 193.84533 342.079723 
L 199.862314 343.15849 
L 205.879298 344.04171 
L 213.901943 344.975468 
L 221.924588 345.69066 
L 231.952895 346.354048 
L 243.986863 346.906875 
L 258.026492 347.32604 
L 276.077443 347.644069 
L 302.15104 347.868301 
L 346.275589 347.993396 
L 468.620928 348.030266 
L 679.215364 348.030909 
L 679.215364 348.030909 
" clip-path="url(#p5a7c9ab34e)" style="fill: none; stroke: #1f77b4; stroke-width: 2.2; stroke-linecap: square"/>
   </g>
   <g id="line2d_51">
    <path d="M 79.522636 348.030909 
L 237.969879 348.030909 
L 239.97554 211.449091 
L 241.981201 220.257664 
L 243.986863 228.498146 
L 245.992524 236.207174 
L 247.998185 243.419024 
L 250.003846 250.16576 
L 252.009508 256.477378 
L 254.015169 262.381942 
L 256.02083 267.905702 
L 258.026492 273.073218 
L 260.032153 277.907465 
L 262.037814 282.429938 
L 264.043476 286.660742 
L 266.049137 290.618689 
L 268.054798 294.321376 
L 270.060459 297.785266 
L 274.071782 304.057263 
L 278.083105 309.546347 
L 282.094427 314.350247 
L 286.10575 318.554493 
L 290.117072 322.233936 
L 294.128395 325.454086 
L 298.139718 328.272276 
L 302.15104 330.738681 
L 306.162363 332.897212 
L 310.173685 334.786301 
L 314.185008 336.439582 
L 318.19633 337.886489 
L 322.207653 339.152783 
L 328.224637 340.762114 
L 334.241621 342.079723 
L 340.258605 343.15849 
L 346.275589 344.04171 
L 354.298234 344.975468 
L 362.320879 345.69066 
L 372.349185 346.354048 
L 384.383153 346.906875 
L 398.422782 347.32604 
L 416.473734 347.644069 
L 442.547331 347.868301 
L 486.671879 347.993396 
L 609.017218 348.030266 
L 679.215364 348.030847 
L 679.215364 348.030847 
" clip-path="url(#p5a7c9ab34e)" style="fill: none; stroke: #ff7f0e; stroke-width: 2.2; stroke-linecap: square"/>
   </g>
   <g id="line2d_52">
    <path d="M 79.522636 348.030909 
L 478.649234 348.030909 
L 480.654895 211.449091 
L 482.660557 220.257664 
L 484.666218 228.498146 
L 486.671879 236.207174 
L 488.677541 243.419024 
L 490.683202 250.16576 
L 492.688863 256.477378 
L 494.694524 262.381942 
L 496.700186 267.905702 
L 498.705847 273.073218 
L 500.711508 277.907465 
L 502.71717 282.429938 
L 504.722831 286.660742 
L 506.728492 290.618689 
L 508.734154 294.321376 
L 510.739815 297.785266 
L 514.751137 304.057263 
L 518.76246 309.546347 
L 522.773783 314.350247 
L 526.785105 318.554493 
L 530.796428 322.233936 
L 534.80775 325.454086 
L 538.819073 328.272276 
L 542.830396 330.738681 
L 546.841718 332.897212 
L 550.853041 334.786301 
L 554.864363 336.439582 
L 558.875686 337.886489 
L 562.887009 339.152783 
L 568.903992 340.762114 
L 574.920976 342.079723 
L 580.93796 343.15849 
L 586.954944 344.04171 
L 594.977589 344.975468 
L 603.000234 345.69066 
L 613.028541 346.354048 
L 625.062509 346.906875 
L 639.102138 347.32604 
L 657.153089 347.644069 
L 679.215364 347.845108 
L 679.215364 347.845108 
" clip-path="url(#p5a7c9ab34e)" style="fill: none; stroke: #2ca02c; stroke-width: 2.2; stroke-linecap: square"/>
   </g>
   <g id="line2d_53">
    <path d="M 79.522636 348.030909 
L 207.884959 348.030909 
L 209.890621 211.449091 
L 211.896282 220.257664 
L 213.901943 228.498146 
L 215.907604 236.207174 
L 217.913266 243.419024 
L 219.918927 250.16576 
L 221.924588 256.477378 
L 223.93025 262.381942 
L 225.935911 267.905702 
L 227.941572 273.073218 
L 229.947234 277.907465 
L 231.952895 282.429938 
L 233.958556 286.660742 
L 235.964217 290.618689 
L 237.969879 294.321376 
L 239.97554 297.785266 
L 243.986863 304.057263 
L 247.998185 309.546347 
L 252.009508 314.350247 
L 256.02083 318.554493 
L 260.032153 322.233936 
L 264.043476 325.454086 
L 268.054798 328.272276 
L 272.066121 330.738681 
L 276.077443 332.897212 
L 280.088766 334.786301 
L 284.100088 336.439582 
L 288.111411 337.886489 
L 292.122734 339.152783 
L 298.139718 340.762114 
L 304.156701 342.079723 
L 310.173685 343.15849 
L 316.190669 344.04171 
L 324.213314 344.975468 
L 332.23596 345.69066 
L 342.264266 346.354048 
L 354.298234 346.906875 
L 368.337863 347.32604 
L 386.388815 347.644069 
L 412.462411 347.868301 
L 456.58696 347.993396 
L 578.932299 348.030266 
L 679.215364 348.030886 
L 679.215364 348.030886 
" clip-path="url(#p5a7c9ab34e)" style="fill: none; stroke: #d62728; stroke-width: 2.2; stroke-linecap: square"/>
   </g>
   <g id="line2d_54">
    <path d="M 79.522636 348.030909 
L 578.932299 348.030909 
L 580.93796 211.449091 
L 582.943621 220.257664 
L 584.949283 228.498146 
L 586.954944 236.207174 
L 588.960605 243.419024 
L 590.966267 250.16576 
L 592.971928 256.477378 
L 594.977589 262.381942 
L 596.983251 267.905702 
L 598.988912 273.073218 
L 600.994573 277.907465 
L 603.000234 282.429938 
L 605.005896 286.660742 
L 607.011557 290.618689 
L 609.017218 294.321376 
L 611.02288 297.785266 
L 615.034202 304.057263 
L 619.045525 309.546347 
L 623.056847 314.350247 
L 627.06817 318.554493 
L 631.079493 322.233936 
L 635.090815 325.454086 
L 639.102138 328.272276 
L 643.11346 330.738681 
L 647.124783 332.897212 
L 651.136106 334.786301 
L 655.147428 336.439582 
L 659.158751 337.886489 
L 663.170073 339.152783 
L 669.187057 340.762114 
L 675.204041 342.079723 
L 679.215364 342.82259 
L 679.215364 342.82259 
" clip-path="url(#p5a7c9ab34e)" style="fill: none; stroke: #9467bd; stroke-width: 2.2; stroke-linecap: square"/>
   </g>
   <g id="patch_8">
    <path d="M 49.538 354.86 
L 49.538 204.62 
" style="fill: none; stroke: #000000; stroke-width: 0.8; stroke-linejoin: miter; stroke-linecap: square"/>
   </g>
   <g id="patch_9">
    <path d="M 709.2 354.86 
L 709.2 204.62 
" style="fill: none; stroke: #000000; stroke-width: 0.8; stroke-linejoin: miter; stroke-linecap: square"/>
   </g>
   <g id="patch_10">
    <path d="M 49.538 354.86 
L 709.2 354.86 
" style="fill: none; stroke: #000000; stroke-width: 0.8; stroke-linejoin: miter; stroke-linecap: square"/>
   </g>
   <g id="patch_11">
    <path d="M 49.538 204.62 
L 709.2 204.62 
" style="fill: none; stroke: #000000; stroke-width: 0.8; stroke-linejoin: miter; stroke-linecap: square"/>
   </g>
   <g id="text_14">
    <!-- Soma: eligibility trace -->
    <g transform="translate(313.831187 198.62) scale(0.12 -0.12)">
     <defs>
      <path id="DejaVuSans-6c" d="M 603 4863 
L 1178 4863 
L 1178 0 
L 603 0 
L 603 4863 
z
" transform="scale(0.015625)"/>
      <path id="DejaVuSans-62" d="M 3116 1747 
Q 3116 2381 2855 2742 
Q 2594 3103 2138 3103 
Q 1681 3103 1420 2742 
Q 1159 2381 1159 1747 
Q 1159 1113 1420 752 
Q 1681 391 2138 391 
Q 2594 391 2855 752 
Q 3116 1113 3116 1747 
z
M 1159 2969 
Q 1341 3281 1617 3432 
Q 1894 3584 2278 3584 
Q 2916 3584 3314 3078 
Q 3713 2572 3713 1747 
Q 3713 922 3314 415 
Q 2916 -91 2278 -91 
Q 1894 -91 1617 61 
Q 1341 213 1159 525 
L 1159 0 
L 581 0 
L 581 4863 
L 1159 4863 
L 1159 2969 
z
" transform="scale(0.015625)"/>
      <path id="DejaVuSans-79" d="M 2059 -325 
Q 1816 -950 1584 -1140 
Q 1353 -1331 966 -1331 
L 506 -1331 
L 506 -850 
L 844 -850 
Q 1081 -850 1212 -737 
Q 1344 -625 1503 -206 
L 1606 56 
L 191 3500 
L 800 3500 
L 1894 763 
L 2988 3500 
L 3597 3500 
L 2059 -325 
z
" transform="scale(0.015625)"/>
      <path id="DejaVuSans-63" d="M 3122 3366 
L 3122 2828 
Q 2878 2963 2633 3030 
Q 2388 3097 2138 3097 
Q 1578 3097 1268 2742 
Q 959 2388 959 1747 
Q 959 1106 1268 751 
Q 1578 397 2138 397 
Q 2388 397 2633 464 
Q 2878 531 3122 666 
L 3122 134 
Q 2881 22 2623 -34 
Q 2366 -91 2075 -91 
Q 1284 -91 818 406 
Q 353 903 353 1747 
Q 353 2603 823 3093 
Q 1294 3584 2113 3584 
Q 2378 3584 2631 3529 
Q 2884 3475 3122 3366 
z
" transform="scale(0.015625)"/>
     </defs>
     <use xlink:href="#DejaVuSans-53"/>
     <use xlink:href="#DejaVuSans-6f" transform="translate(63.476562 0)"/>
     <use xlink:href="#DejaVuSans-6d" transform="translate(124.658203 0)"/>
     <use xlink:href="#DejaVuSans-61" transform="translate(222.070312 0)"/>
     <use xlink:href="#DejaVuSans-3a" transform="translate(283.349609 0)"/>
     <use xlink:href="#DejaVuSans-20" transform="translate(317.041016 0)"/>
     <use xlink:href="#DejaVuSans-65" transform="translate(348.828125 0)"/>
     <use xlink:href="#DejaVuSans-6c" transform="translate(410.351562 0)"/>
     <use xlink:href="#DejaVuSans-69" transform="translate(438.134766 0)"/>
     <use xlink:href="#DejaVuSans-67" transform="translate(465.917969 0)"/>
     <use xlink:href="#DejaVuSans-69" transform="translate(529.394531 0)"/>
     <use xlink:href="#DejaVuSans-62" transform="translate(557.177734 0)"/>
     <use xlink:href="#DejaVuSans-69" transform="translate(620.654297 0)"/>
     <use xlink:href="#DejaVuSans-6c" transform="translate(648.4375 0)"/>
     <use xlink:href="#DejaVuSans-69" transform="translate(676.220703 0)"/>
     <use xlink:href="#DejaVuSans-74" transform="translate(704.003906 0)"/>
     <use xlink:href="#DejaVuSans-79" transform="translate(743.212891 0)"/>
     <use xlink:href="#DejaVuSans-20" transform="translate(802.392578 0)"/>
     <use xlink:href="#DejaVuSans-74" transform="translate(834.179688 0)"/>
     <use xlink:href="#DejaVuSans-72" transform="translate(873.388672 0)"/>
     <use xlink:href="#DejaVuSans-61" transform="translate(914.501953 0)"/>
     <use xlink:href="#DejaVuSans-63" transform="translate(975.78125 0)"/>
     <use xlink:href="#DejaVuSans-65" transform="translate(1030.761719 0)"/>
    </g>
   </g>
   <g id="legend_1">
    <g id="patch_12">
     <path d="M 663.44125 269.7325 
L 703.6 269.7325 
Q 705.2 269.7325 705.2 268.1325 
L 705.2 210.22 
Q 705.2 208.62 703.6 208.62 
L 663.44125 208.62 
Q 661.84125 208.62 661.84125 210.22 
L 661.84125 268.1325 
Q 661.84125 269.7325 663.44125 269.7325 
z
" style="fill: #ffffff; opacity: 0.8; stroke: #cccccc; stroke-linejoin: miter"/>
    </g>
    <g id="line2d_55">
     <path d="M 665.04125 215.09875 
L 673.04125 215.09875 
L 681.04125 215.09875 
" style="fill: none; stroke: #1f77b4; stroke-width: 2.2; stroke-linecap: square"/>
    </g>
    <g id="text_15">
     <!-- ch0 -->
     <g transform="translate(687.44125 217.89875) scale(0.08 -0.08)">
      <defs>
       <path id="DejaVuSans-68" d="M 3513 2113 
L 3513 0 
L 2938 0 
L 2938 2094 
Q 2938 2591 2744 2837 
Q 2550 3084 2163 3084 
Q 1697 3084 1428 2787 
Q 1159 2491 1159 1978 
L 1159 0 
L 581 0 
L 581 4863 
L 1159 4863 
L 1159 2956 
Q 1366 3272 1645 3428 
Q 1925 3584 2291 3584 
Q 2894 3584 3203 3211 
Q 3513 2838 3513 2113 
z
" transform="scale(0.015625)"/>
      </defs>
      <use xlink:href="#DejaVuSans-63"/>
      <use xlink:href="#DejaVuSans-68" transform="translate(54.980469 0)"/>
      <use xlink:href="#DejaVuSans-30" transform="translate(118.359375 0)"/>
     </g>
    </g>
    <g id="line2d_56">
     <path d="M 665.04125 226.84125 
L 673.04125 226.84125 
L 681.04125 226.84125 
" style="fill: none; stroke: #ff7f0e; stroke-width: 2.2; stroke-linecap: square"/>
    </g>
    <g id="text_16">
     <!-- ch1 -->
     <g transform="translate(687.44125 229.64125) scale(0.08 -0.08)">
      <use xlink:href="#DejaVuSans-63"/>
      <use xlink:href="#DejaVuSans-68" transform="translate(54.980469 0)"/>
      <use xlink:href="#DejaVuSans-31" transform="translate(118.359375 0)"/>
     </g>
    </g>
    <g id="line2d_57">
     <path d="M 665.04125 238.58375 
L 673.04125 238.58375 
L 681.04125 238.58375 
" style="fill: none; stroke: #2ca02c; stroke-width: 2.2; stroke-linecap: square"/>
    </g>
    <g id="text_17">
     <!-- ch2 -->
     <g transform="translate(687.44125 241.38375) scale(0.08 -0.08)">
      <use xlink:href="#DejaVuSans-63"/>
      <use xlink:href="#DejaVuSans-68" transform="translate(54.980469 0)"/>
      <use xlink:href="#DejaVuSans-32" transform="translate(118.359375 0)"/>
     </g>
    </g>
    <g id="line2d_58">
     <path d="M 665.04125 250.32625 
L 673.04125 250.32625 
L 681.04125 250.32625 
" style="fill: none; stroke: #d62728; stroke-width: 2.2; stroke-linecap: square"/>
    </g>
    <g id="text_18">
     <!-- ch3 -->
     <g transform="translate(687.44125 253.12625) scale(0.08 -0.08)">
      <defs>
       <path id="DejaVuSans-33" d="M 2597 2516 
Q 3050 2419 3304 2112 
Q 3559 1806 3559 1356 
Q 3559 666 3084 287 
Q 2609 -91 1734 -91 
Q 1441 -91 1130 -33 
Q 819 25 488 141 
L 488 750 
Q 750 597 1062 519 
Q 1375 441 1716 441 
Q 2309 441 2620 675 
Q 2931 909 2931 1356 
Q 2931 1769 2642 2001 
Q 2353 2234 1838 2234 
L 1294 2234 
L 1294 2753 
L 1863 2753 
Q 2328 2753 2575 2939 
Q 2822 3125 2822 3475 
Q 2822 3834 2567 4026 
Q 2313 4219 1838 4219 
Q 1578 4219 1281 4162 
Q 984 4106 628 3988 
L 628 4550 
Q 988 4650 1302 4700 
Q 1616 4750 1894 4750 
Q 2613 4750 3031 4423 
Q 3450 4097 3450 3541 
Q 3450 3153 3228 2886 
Q 3006 2619 2597 2516 
z
" transform="scale(0.015625)"/>
      </defs>
      <use xlink:href="#DejaVuSans-63"/>
      <use xlink:href="#DejaVuSans-68" transform="translate(54.980469 0)"/>
      <use xlink:href="#DejaVuSans-33" transform="translate(118.359375 0)"/>
     </g>
    </g>
    <g id="line2d_59">
     <path d="M 665.04125 262.06875 
L 673.04125 262.06875 
L 681.04125 262.06875 
" style="fill: none; stroke: #9467bd; stroke-width: 2.2; stroke-linecap: square"/>
    </g>
    <g id="text_19">
     <!-- ch4 -->
     <g transform="translate(687.44125 264.86875) scale(0.08 -0.08)">
      <use xlink:href="#DejaVuSans-63"/>
      <use xlink:href="#DejaVuSans-68" transform="translate(54.980469 0)"/>
      <use xlink:href="#DejaVuSans-34" transform="translate(118.359375 0)"/>
     </g>
    </g>
   </g>
  </g>
  <g id="axes_3">
   <g id="patch_13">
    <path d="M 49.538 534.04 
L 709.2 534.04 
L 709.2 383.8 
L 49.538 383.8 
z
" style="fill: #ffffff"/>
   </g>
   <g id="matplotlib.axis_5">
    <g id="xtick_15">
     <g id="line2d_60">
      <path d="M 79.522636 534.04 
L 79.522636 383.8 
" clip-path="url(#p8f02439591)" style="fill: none; stroke: #b0b0b0; stroke-opacity: 0.3; stroke-width: 0.8; stroke-linecap: square"/>
     </g>
     <g id="line2d_61">
      <g>
       <use xlink:href="#m69db159c1d" x="79.522636" y="534.04" style="stroke: #000000; stroke-width: 0.8"/>
      </g>
     </g>
     <g id="text_20">
      <!-- 0 -->
      <g transform="translate(76.341386 548.638438) scale(0.1 -0.1)">
       <use xlink:href="#DejaVuSans-30"/>
      </g>
     </g>
    </g>
    <g id="xtick_16">
     <g id="line2d_62">
      <path d="M 179.805701 534.04 
L 179.805701 383.8 
" clip-path="url(#p8f02439591)" style="fill: none; stroke: #b0b0b0; stroke-opacity: 0.3; stroke-width: 0.8; stroke-linecap: square"/>
     </g>
     <g id="line2d_63">
      <g>
       <use xlink:href="#m69db159c1d" x="179.805701" y="534.04" style="stroke: #000000; stroke-width: 0.8"/>
      </g>
     </g>
     <g id="text_21">
      <!-- 50 -->
      <g transform="translate(173.443201 548.638438) scale(0.1 -0.1)">
       <defs>
        <path id="DejaVuSans-35" d="M 691 4666 
L 3169 4666 
L 3169 4134 
L 1269 4134 
L 1269 2991 
Q 1406 3038 1543 3061 
Q 1681 3084 1819 3084 
Q 2600 3084 3056 2656 
Q 3513 2228 3513 1497 
Q 3513 744 3044 326 
Q 2575 -91 1722 -91 
Q 1428 -91 1123 -41 
Q 819 9 494 109 
L 494 744 
Q 775 591 1075 516 
Q 1375 441 1709 441 
Q 2250 441 2565 725 
Q 2881 1009 2881 1497 
Q 2881 1984 2565 2268 
Q 2250 2553 1709 2553 
Q 1456 2553 1204 2497 
Q 953 2441 691 2322 
L 691 4666 
z
" transform="scale(0.015625)"/>
       </defs>
       <use xlink:href="#DejaVuSans-35"/>
       <use xlink:href="#DejaVuSans-30" transform="translate(63.623047 0)"/>
      </g>
     </g>
    </g>
    <g id="xtick_17">
     <g id="line2d_64">
      <path d="M 280.088766 534.04 
L 280.088766 383.8 
" clip-path="url(#p8f02439591)" style="fill: none; stroke: #b0b0b0; stroke-opacity: 0.3; stroke-width: 0.8; stroke-linecap: square"/>
     </g>
     <g id="line2d_65">
      <g>
       <use xlink:href="#m69db159c1d" x="280.088766" y="534.04" style="stroke: #000000; stroke-width: 0.8"/>
      </g>
     </g>
     <g id="text_22">
      <!-- 100 -->
      <g transform="translate(270.545016 548.638438) scale(0.1 -0.1)">
       <use xlink:href="#DejaVuSans-31"/>
       <use xlink:href="#DejaVuSans-30" transform="translate(63.623047 0)"/>
       <use xlink:href="#DejaVuSans-30" transform="translate(127.246094 0)"/>
      </g>
     </g>
    </g>
    <g id="xtick_18">
     <g id="line2d_66">
      <path d="M 380.371831 534.04 
L 380.371831 383.8 
" clip-path="url(#p8f02439591)" style="fill: none; stroke: #b0b0b0; stroke-opacity: 0.3; stroke-width: 0.8; stroke-linecap: square"/>
     </g>
     <g id="line2d_67">
      <g>
       <use xlink:href="#m69db159c1d" x="380.371831" y="534.04" style="stroke: #000000; stroke-width: 0.8"/>
      </g>
     </g>
     <g id="text_23">
      <!-- 150 -->
      <g transform="translate(370.828081 548.638438) scale(0.1 -0.1)">
       <use xlink:href="#DejaVuSans-31"/>
       <use xlink:href="#DejaVuSans-35" transform="translate(63.623047 0)"/>
       <use xlink:href="#DejaVuSans-30" transform="translate(127.246094 0)"/>
      </g>
     </g>
    </g>
    <g id="xtick_19">
     <g id="line2d_68">
      <path d="M 480.654895 534.04 
L 480.654895 383.8 
" clip-path="url(#p8f02439591)" style="fill: none; stroke: #b0b0b0; stroke-opacity: 0.3; stroke-width: 0.8; stroke-linecap: square"/>
     </g>
     <g id="line2d_69">
      <g>
       <use xlink:href="#m69db159c1d" x="480.654895" y="534.04" style="stroke: #000000; stroke-width: 0.8"/>
      </g>
     </g>
     <g id="text_24">
      <!-- 200 -->
      <g transform="translate(471.111145 548.638438) scale(0.1 -0.1)">
       <use xlink:href="#DejaVuSans-32"/>
       <use xlink:href="#DejaVuSans-30" transform="translate(63.623047 0)"/>
       <use xlink:href="#DejaVuSans-30" transform="translate(127.246094 0)"/>
      </g>
     </g>
    </g>
    <g id="xtick_20">
     <g id="line2d_70">
      <path d="M 580.93796 534.04 
L 580.93796 383.8 
" clip-path="url(#p8f02439591)" style="fill: none; stroke: #b0b0b0; stroke-opacity: 0.3; stroke-width: 0.8; stroke-linecap: square"/>
     </g>
     <g id="line2d_71">
      <g>
       <use xlink:href="#m69db159c1d" x="580.93796" y="534.04" style="stroke: #000000; stroke-width: 0.8"/>
      </g>
     </g>
     <g id="text_25">
      <!-- 250 -->
      <g transform="translate(571.39421 548.638438) scale(0.1 -0.1)">
       <use xlink:href="#DejaVuSans-32"/>
       <use xlink:href="#DejaVuSans-35" transform="translate(63.623047 0)"/>
       <use xlink:href="#DejaVuSans-30" transform="translate(127.246094 0)"/>
      </g>
     </g>
    </g>
    <g id="xtick_21">
     <g id="line2d_72">
      <path d="M 681.221025 534.04 
L 681.221025 383.8 
" clip-path="url(#p8f02439591)" style="fill: none; stroke: #b0b0b0; stroke-opacity: 0.3; stroke-width: 0.8; stroke-linecap: square"/>
     </g>
     <g id="line2d_73">
      <g>
       <use xlink:href="#m69db159c1d" x="681.221025" y="534.04" style="stroke: #000000; stroke-width: 0.8"/>
      </g>
     </g>
     <g id="text_26">
      <!-- 300 -->
      <g transform="translate(671.677275 548.638438) scale(0.1 -0.1)">
       <use xlink:href="#DejaVuSans-33"/>
       <use xlink:href="#DejaVuSans-30" transform="translate(63.623047 0)"/>
       <use xlink:href="#DejaVuSans-30" transform="translate(127.246094 0)"/>
      </g>
     </g>
    </g>
    <g id="text_27">
     <!-- Time (ms) -->
     <g transform="translate(354.169781 562.316563) scale(0.1 -0.1)">
      <defs>
       <path id="DejaVuSans-54" d="M -19 4666 
L 3928 4666 
L 3928 4134 
L 2272 4134 
L 2272 0 
L 1638 0 
L 1638 4134 
L -19 4134 
L -19 4666 
z
" transform="scale(0.015625)"/>
       <path id="DejaVuSans-28" d="M 1984 4856 
Q 1566 4138 1362 3434 
Q 1159 2731 1159 2009 
Q 1159 1288 1364 580 
Q 1569 -128 1984 -844 
L 1484 -844 
Q 1016 -109 783 600 
Q 550 1309 550 2009 
Q 550 2706 781 3412 
Q 1013 4119 1484 4856 
L 1984 4856 
z
" transform="scale(0.015625)"/>
       <path id="DejaVuSans-29" d="M 513 4856 
L 1013 4856 
Q 1481 4119 1714 3412 
Q 1947 2706 1947 2009 
Q 1947 1309 1714 600 
Q 1481 -109 1013 -844 
L 513 -844 
Q 928 -128 1133 580 
Q 1338 1288 1338 2009 
Q 1338 2731 1133 3434 
Q 928 4138 513 4856 
z
" transform="scale(0.015625)"/>
      </defs>
      <use xlink:href="#DejaVuSans-54"/>
      <use xlink:href="#DejaVuSans-69" transform="translate(57.958984 0)"/>
      <use xlink:href="#DejaVuSans-6d" transform="translate(85.742188 0)"/>
      <use xlink:href="#DejaVuSans-65" transform="translate(183.154297 0)"/>
      <use xlink:href="#DejaVuSans-20" transform="translate(244.677734 0)"/>
      <use xlink:href="#DejaVuSans-28" transform="translate(276.464844 0)"/>
      <use xlink:href="#DejaVuSans-6d" transform="translate(315.478516 0)"/>
      <use xlink:href="#DejaVuSans-73" transform="translate(412.890625 0)"/>
      <use xlink:href="#DejaVuSans-29" transform="translate(464.990234 0)"/>
     </g>
    </g>
   </g>
   <g id="matplotlib.axis_6">
    <g id="ytick_11">
     <g id="line2d_74">
      <path d="M 49.538 527.210909 
L 709.2 527.210909 
" clip-path="url(#p8f02439591)" style="fill: none; stroke: #b0b0b0; stroke-opacity: 0.3; stroke-width: 0.8; stroke-linecap: square"/>
     </g>
     <g id="line2d_75">
      <g>
       <use xlink:href="#m5823f3aec7" x="49.538" y="527.210909" style="stroke: #000000; stroke-width: 0.8"/>
      </g>
     </g>
     <g id="text_28">
      <!-- 0.0 -->
      <g transform="translate(26.634875 531.010128) scale(0.1 -0.1)">
       <use xlink:href="#DejaVuSans-30"/>
       <use xlink:href="#DejaVuSans-2e" transform="translate(63.623047 0)"/>
       <use xlink:href="#DejaVuSans-30" transform="translate(95.410156 0)"/>
      </g>
     </g>
    </g>
    <g id="ytick_12">
     <g id="line2d_76">
      <path d="M 49.538 498.562479 
L 709.2 498.562479 
" clip-path="url(#p8f02439591)" style="fill: none; stroke: #b0b0b0; stroke-opacity: 0.3; stroke-width: 0.8; stroke-linecap: square"/>
     </g>
     <g id="line2d_77">
      <g>
       <use xlink:href="#m5823f3aec7" x="49.538" y="498.562479" style="stroke: #000000; stroke-width: 0.8"/>
      </g>
     </g>
     <g id="text_29">
      <!-- 0.2 -->
      <g transform="translate(26.634875 502.361697) scale(0.1 -0.1)">
       <use xlink:href="#DejaVuSans-30"/>
       <use xlink:href="#DejaVuSans-2e" transform="translate(63.623047 0)"/>
       <use xlink:href="#DejaVuSans-32" transform="translate(95.410156 0)"/>
      </g>
     </g>
    </g>
    <g id="ytick_13">
     <g id="line2d_78">
      <path d="M 49.538 469.914048 
L 709.2 469.914048 
" clip-path="url(#p8f02439591)" style="fill: none; stroke: #b0b0b0; stroke-opacity: 0.3; stroke-width: 0.8; stroke-linecap: square"/>
     </g>
     <g id="line2d_79">
      <g>
       <use xlink:href="#m5823f3aec7" x="49.538" y="469.914048" style="stroke: #000000; stroke-width: 0.8"/>
      </g>
     </g>
     <g id="text_30">
      <!-- 0.4 -->
      <g transform="translate(26.634875 473.713267) scale(0.1 -0.1)">
       <use xlink:href="#DejaVuSans-30"/>
       <use xlink:href="#DejaVuSans-2e" transform="translate(63.623047 0)"/>
       <use xlink:href="#DejaVuSans-34" transform="translate(95.410156 0)"/>
      </g>
     </g>
    </g>
    <g id="ytick_14">
     <g id="line2d_80">
      <path d="M 49.538 441.265618 
L 709.2 441.265618 
" clip-path="url(#p8f02439591)" style="fill: none; stroke: #b0b0b0; stroke-opacity: 0.3; stroke-width: 0.8; stroke-linecap: square"/>
     </g>
     <g id="line2d_81">
      <g>
       <use xlink:href="#m5823f3aec7" x="49.538" y="441.265618" style="stroke: #000000; stroke-width: 0.8"/>
      </g>
     </g>
     <g id="text_31">
      <!-- 0.6 -->
      <g transform="translate(26.634875 445.064836) scale(0.1 -0.1)">
       <use xlink:href="#DejaVuSans-30"/>
       <use xlink:href="#DejaVuSans-2e" transform="translate(63.623047 0)"/>
       <use xlink:href="#DejaVuSans-36" transform="translate(95.410156 0)"/>
      </g>
     </g>
    </g>
    <g id="ytick_15">
     <g id="line2d_82">
      <path d="M 49.538 412.617187 
L 709.2 412.617187 
" clip-path="url(#p8f02439591)" style="fill: none; stroke: #b0b0b0; stroke-opacity: 0.3; stroke-width: 0.8; stroke-linecap: square"/>
     </g>
     <g id="line2d_83">
      <g>
       <use xlink:href="#m5823f3aec7" x="49.538" y="412.617187" style="stroke: #000000; stroke-width: 0.8"/>
      </g>
     </g>
     <g id="text_32">
      <!-- 0.8 -->
      <g transform="translate(26.634875 416.416406) scale(0.1 -0.1)">
       <use xlink:href="#DejaVuSans-30"/>
       <use xlink:href="#DejaVuSans-2e" transform="translate(63.623047 0)"/>
       <use xlink:href="#DejaVuSans-38" transform="translate(95.410156 0)"/>
      </g>
     </g>
    </g>
    <g id="ytick_16">
     <g id="line2d_84">
      <path d="M 49.538 383.968757 
L 709.2 383.968757 
" clip-path="url(#p8f02439591)" style="fill: none; stroke: #b0b0b0; stroke-opacity: 0.3; stroke-width: 0.8; stroke-linecap: square"/>
     </g>
     <g id="line2d_85">
      <g>
       <use xlink:href="#m5823f3aec7" x="49.538" y="383.968757" style="stroke: #000000; stroke-width: 0.8"/>
      </g>
     </g>
     <g id="text_33">
      <!-- 1.0 -->
      <g transform="translate(26.634875 387.767975) scale(0.1 -0.1)">
       <use xlink:href="#DejaVuSans-31"/>
       <use xlink:href="#DejaVuSans-2e" transform="translate(63.623047 0)"/>
       <use xlink:href="#DejaVuSans-30" transform="translate(95.410156 0)"/>
      </g>
     </g>
    </g>
    <g id="text_34">
     <!-- $\partial o/\partial v \cdot \partial v/\partial w_\mathrm{soma}$ -->
     <g transform="translate(20.555188 498.92) rotate(-90) scale(0.1 -0.1)">
      <defs>
       <path id="DejaVuSans-22c5" d="M 684 2619 
L 1344 2619 
L 1344 1825 
L 684 1825 
L 684 2619 
z
" transform="scale(0.015625)"/>
      </defs>
      <use xlink:href="#DejaVuSans-2202" transform="translate(0 0.09375)"/>
      <use xlink:href="#DejaVuSans-Oblique-6f" transform="translate(51.708984 0.09375)"/>
      <use xlink:href="#DejaVuSans-2f" transform="translate(112.890625 0.09375)"/>
      <use xlink:href="#DejaVuSans-2202" transform="translate(146.582031 0.09375)"/>
      <use xlink:href="#DejaVuSans-Oblique-76" transform="translate(198.291016 0.09375)"/>
      <use xlink:href="#DejaVuSans-22c5" transform="translate(276.953125 0.09375)"/>
      <use xlink:href="#DejaVuSans-2202" transform="translate(328.222656 0.09375)"/>
      <use xlink:href="#DejaVuSans-Oblique-76" transform="translate(379.931641 0.09375)"/>
      <use xlink:href="#DejaVuSans-2f" transform="translate(439.111328 0.09375)"/>
      <use xlink:href="#DejaVuSans-2202" transform="translate(472.802734 0.09375)"/>
      <use xlink:href="#DejaVuSans-Oblique-77" transform="translate(524.511719 0.09375)"/>
      <use xlink:href="#DejaVuSans-73" transform="translate(606.298828 -16.3125) scale(0.7)"/>
      <use xlink:href="#DejaVuSans-6f" transform="translate(642.768555 -16.3125) scale(0.7)"/>
      <use xlink:href="#DejaVuSans-6d" transform="translate(685.595703 -16.3125) scale(0.7)"/>
      <use xlink:href="#DejaVuSans-61" transform="translate(753.78418 -16.3125) scale(0.7)"/>
     </g>
    </g>
   </g>
   <g id="line2d_86">
    <path d="M 79.522636 527.210909 
L 97.573588 527.210909 
L 99.579249 456.912559 
L 101.584911 470.570602 
L 103.590572 478.717017 
L 105.596233 487.555974 
L 107.601894 492.64903 
L 109.607556 497.438592 
L 111.613217 501.869775 
L 113.618878 505.203118 
L 115.62454 508.189747 
L 117.630201 510.145445 
L 121.641524 513.710712 
L 123.647185 515.328937 
L 125.652846 516.443534 
L 131.66983 519.044247 
L 133.675491 519.828823 
L 137.686814 521.083426 
L 143.703798 522.524078 
L 147.71512 523.230429 
L 153.732104 524.129629 
L 157.743427 524.590934 
L 161.754749 524.97895 
L 169.777395 525.547583 
L 179.805701 526.038508 
L 207.884959 526.751134 
L 209.890621 526.543552 
L 221.924588 526.838358 
L 237.969879 527.011586 
L 239.97554 526.155265 
L 243.986863 526.495038 
L 254.015169 526.853243 
L 266.049137 527.017081 
L 302.15104 527.162144 
L 382.377492 527.207554 
L 679.215364 527.210909 
L 679.215364 527.210909 
" clip-path="url(#p8f02439591)" style="fill: none; stroke: #1f77b4; stroke-width: 2.2; stroke-linecap: square"/>
   </g>
   <g id="line2d_87">
    <path d="M 79.522636 527.210909 
L 237.969879 527.210909 
L 239.97554 414.950902 
L 241.981201 436.482873 
L 243.986863 451.083279 
L 247.998185 470.126943 
L 250.003846 477.414583 
L 252.009508 484.052149 
L 254.015169 489.175689 
L 256.02083 493.834595 
L 258.026492 496.733197 
L 260.032153 499.033482 
L 262.037814 501.938549 
L 266.049137 506.598718 
L 270.060459 509.679659 
L 272.066121 510.528402 
L 274.071782 512.306543 
L 280.088766 515.495835 
L 282.094427 516.270057 
L 284.100088 517.436552 
L 286.10575 517.740431 
L 288.111411 518.724482 
L 290.117072 519.198477 
L 292.122734 519.976582 
L 294.128395 520.335775 
L 296.134056 520.895381 
L 300.145379 521.753005 
L 302.15104 522.025104 
L 304.156701 522.435494 
L 306.162363 523.043921 
L 310.173685 523.625265 
L 314.185008 524.062655 
L 318.19633 524.422601 
L 320.201992 524.687873 
L 330.230298 525.2842 
L 334.241621 525.582577 
L 362.320879 526.545003 
L 390.400137 526.948695 
L 412.462411 527.092888 
L 464.609605 527.191135 
L 641.107799 527.210883 
L 679.215364 527.210902 
L 679.215364 527.210902 
" clip-path="url(#p8f02439591)" style="fill: none; stroke: #ff7f0e; stroke-width: 2.2; stroke-linecap: square"/>
   </g>
   <g id="line2d_88">
    <path d="M 79.522636 527.210909 
L 478.649234 527.210909 
L 480.654895 390.629091 
L 482.660557 411.888333 
L 484.666218 435.824151 
L 486.671879 450.844763 
L 488.677541 458.504078 
L 490.683202 466.959794 
L 492.688863 474.540787 
L 494.694524 480.266433 
L 496.700186 484.860702 
L 498.705847 490.378314 
L 500.711508 494.590807 
L 504.722831 501.163546 
L 506.728492 503.755629 
L 508.734154 505.260027 
L 510.739815 507.783291 
L 514.751137 509.581118 
L 516.756799 511.857608 
L 518.76246 513.245393 
L 520.768121 514.335993 
L 522.773783 515.627518 
L 524.779444 516.751477 
L 526.785105 517.632996 
L 528.790766 518.234094 
L 530.796428 519.028285 
L 532.802089 519.342686 
L 536.813412 520.493679 
L 540.824734 521.222768 
L 542.830396 524.905662 
L 546.841718 525.185163 
L 562.887009 526.133642 
L 578.932299 526.575448 
L 580.93796 522.828476 
L 582.943621 526.6833 
L 609.017218 526.990559 
L 653.141767 527.160186 
L 679.215364 527.190782 
L 679.215364 527.190782 
" clip-path="url(#p8f02439591)" style="fill: none; stroke: #2ca02c; stroke-width: 2.2; stroke-linecap: square"/>
   </g>
   <g id="line2d_89">
    <path d="M 79.522636 527.210909 
L 207.884959 527.210909 
L 209.890621 501.103046 
L 213.901943 506.06936 
L 215.907604 508.247128 
L 221.924588 512.636219 
L 223.93025 513.71597 
L 225.935911 514.583769 
L 227.941572 515.834377 
L 229.947234 516.853799 
L 235.964217 518.896112 
L 237.969879 519.413125 
L 239.97554 485.91276 
L 241.981201 493.83393 
L 243.986863 499.205119 
L 247.998185 506.210892 
L 250.003846 508.891865 
L 252.009508 511.333688 
L 254.015169 513.218534 
L 256.02083 514.932449 
L 258.026492 515.998785 
L 260.032153 516.845013 
L 262.037814 517.913727 
L 266.049137 519.628108 
L 270.060459 520.761523 
L 272.066121 521.073758 
L 274.071782 521.727899 
L 280.088766 522.901174 
L 282.094427 523.185994 
L 284.100088 523.615124 
L 286.10575 523.726915 
L 288.111411 524.088927 
L 290.117072 524.2633 
L 292.122734 524.549549 
L 298.139718 525.049038 
L 310.173685 525.891824 
L 320.201992 526.282736 
L 364.32654 526.979274 
L 458.592621 527.202019 
L 679.215364 527.210907 
L 679.215364 527.210907 
" clip-path="url(#p8f02439591)" style="fill: none; stroke: #d62728; stroke-width: 2.2; stroke-linecap: square"/>
   </g>
   <g id="line2d_90">
    <path d="M 79.522636 527.210909 
L 578.932299 527.210909 
L 580.93796 404.364202 
L 582.943621 512.421165 
L 590.966267 515.91599 
L 592.971928 516.682704 
L 594.977589 517.59739 
L 596.983251 518.081549 
L 603.000234 519.851751 
L 605.005896 520.297098 
L 607.011557 520.598784 
L 611.02288 521.391229 
L 617.039863 522.260222 
L 621.051186 522.876667 
L 629.073831 523.952971 
L 637.096476 524.703195 
L 643.11346 525.181324 
L 653.141767 525.789064 
L 671.192718 526.445178 
L 679.215364 526.646704 
L 679.215364 526.646704 
" clip-path="url(#p8f02439591)" style="fill: none; stroke: #9467bd; stroke-width: 2.2; stroke-linecap: square"/>
   </g>
   <g id="patch_14">
    <path d="M 49.538 534.04 
L 49.538 383.8 
" style="fill: none; stroke: #000000; stroke-width: 0.8; stroke-linejoin: miter; stroke-linecap: square"/>
   </g>
   <g id="patch_15">
    <path d="M 709.2 534.04 
L 709.2 383.8 
" style="fill: none; stroke: #000000; stroke-width: 0.8; stroke-linejoin: miter; stroke-linecap: square"/>
   </g>
   <g id="patch_16">
    <path d="M 49.538 534.04 
L 709.2 534.04 
" style="fill: none; stroke: #000000; stroke-width: 0.8; stroke-linejoin: miter; stroke-linecap: square"/>
   </g>
   <g id="patch_17">
    <path d="M 49.538 383.8 
L 709.2 383.8 
" style="fill: none; stroke: #000000; stroke-width: 0.8; stroke-linejoin: miter; stroke-linecap: square"/>
   </g>
   <g id="text_35">
    <!-- Soma: total gradient per timestep (error omitted) -->
    <g transform="translate(230.8165 377.8) scale(0.12 -0.12)">
     <defs>
      <path id="DejaVuSans-70" d="M 1159 525 
L 1159 -1331 
L 581 -1331 
L 581 3500 
L 1159 3500 
L 1159 2969 
Q 1341 3281 1617 3432 
Q 1894 3584 2278 3584 
Q 2916 3584 3314 3078 
Q 3713 2572 3713 1747 
Q 3713 922 3314 415 
Q 2916 -91 2278 -91 
Q 1894 -91 1617 61 
Q 1341 213 1159 525 
z
M 3116 1747 
Q 3116 2381 2855 2742 
Q 2594 3103 2138 3103 
Q 1681 3103 1420 2742 
Q 1159 2381 1159 1747 
Q 1159 1113 1420 752 
Q 1681 391 2138 391 
Q 2594 391 2855 752 
Q 3116 1113 3116 1747 
z
" transform="scale(0.015625)"/>
     </defs>
     <use xlink:href="#DejaVuSans-53"/>
     <use xlink:href="#DejaVuSans-6f" transform="translate(63.476562 0)"/>
     <use xlink:href="#DejaVuSans-6d" transform="translate(124.658203 0)"/>
     <use xlink:href="#DejaVuSans-61" transform="translate(222.070312 0)"/>
     <use xlink:href="#DejaVuSans-3a" transform="translate(283.349609 0)"/>
     <use xlink:href="#DejaVuSans-20" transform="translate(317.041016 0)"/>
     <use xlink:href="#DejaVuSans-74" transform="translate(348.828125 0)"/>
     <use xlink:href="#DejaVuSans-6f" transform="translate(388.037109 0)"/>
     <use xlink:href="#DejaVuSans-74" transform="translate(449.21875 0)"/>
     <use xlink:href="#DejaVuSans-61" transform="translate(488.427734 0)"/>
     <use xlink:href="#DejaVuSans-6c" transform="translate(549.707031 0)"/>
     <use xlink:href="#DejaVuSans-20" transform="translate(577.490234 0)"/>
     <use xlink:href="#DejaVuSans-67" transform="translate(609.277344 0)"/>
     <use xlink:href="#DejaVuSans-72" transform="translate(672.753906 0)"/>
     <use xlink:href="#DejaVuSans-61" transform="translate(713.867188 0)"/>
     <use xlink:href="#DejaVuSans-64" transform="translate(775.146484 0)"/>
     <use xlink:href="#DejaVuSans-69" transform="translate(838.623047 0)"/>
     <use xlink:href="#DejaVuSans-65" transform="translate(866.40625 0)"/>
     <use xlink:href="#DejaVuSans-6e" transform="translate(927.929688 0)"/>
     <use xlink:href="#DejaVuSans-74" transform="translate(991.308594 0)"/>
     <use xlink:href="#DejaVuSans-20" transform="translate(1030.517578 0)"/>
     <use xlink:href="#DejaVuSans-70" transform="translate(1062.304688 0)"/>
     <use xlink:href="#DejaVuSans-65" transform="translate(1125.78125 0)"/>
     <use xlink:href="#DejaVuSans-72" transform="translate(1187.304688 0)"/>
     <use xlink:href="#DejaVuSans-20" transform="translate(1228.417969 0)"/>
     <use xlink:href="#DejaVuSans-74" transform="translate(1260.205078 0)"/>
     <use xlink:href="#DejaVuSans-69" transform="translate(1299.414062 0)"/>
     <use xlink:href="#DejaVuSans-6d" transform="translate(1327.197266 0)"/>
     <use xlink:href="#DejaVuSans-65" transform="translate(1424.609375 0)"/>
     <use xlink:href="#DejaVuSans-73" transform="translate(1486.132812 0)"/>
     <use xlink:href="#DejaVuSans-74" transform="translate(1538.232422 0)"/>
     <use xlink:href="#DejaVuSans-65" transform="translate(1577.441406 0)"/>
     <use xlink:href="#DejaVuSans-70" transform="translate(1638.964844 0)"/>
     <use xlink:href="#DejaVuSans-20" transform="translate(1702.441406 0)"/>
     <use xlink:href="#DejaVuSans-28" transform="translate(1734.228516 0)"/>
     <use xlink:href="#DejaVuSans-65" transform="translate(1773.242188 0)"/>
     <use xlink:href="#DejaVuSans-72" transform="translate(1834.765625 0)"/>
     <use xlink:href="#DejaVuSans-72" transform="translate(1874.128906 0)"/>
     <use xlink:href="#DejaVuSans-6f" transform="translate(1912.992188 0)"/>
     <use xlink:href="#DejaVuSans-72" transform="translate(1974.173828 0)"/>
     <use xlink:href="#DejaVuSans-20" transform="translate(2015.287109 0)"/>
     <use xlink:href="#DejaVuSans-6f" transform="translate(2047.074219 0)"/>
     <use xlink:href="#DejaVuSans-6d" transform="translate(2108.255859 0)"/>
     <use xlink:href="#DejaVuSans-69" transform="translate(2205.667969 0)"/>
     <use xlink:href="#DejaVuSans-74" transform="translate(2233.451172 0)"/>
     <use xlink:href="#DejaVuSans-74" transform="translate(2272.660156 0)"/>
     <use xlink:href="#DejaVuSans-65" transform="translate(2311.869141 0)"/>
     <use xlink:href="#DejaVuSans-64" transform="translate(2373.392578 0)"/>
     <use xlink:href="#DejaVuSans-29" transform="translate(2436.869141 0)"/>
    </g>
   </g>
   <g id="legend_2">
    <g id="patch_18">
     <path d="M 663.44125 448.9125 
L 703.6 448.9125 
Q 705.2 448.9125 705.2 447.3125 
L 705.2 389.4 
Q 705.2 387.8 703.6 387.8 
L 663.44125 387.8 
Q 661.84125 387.8 661.84125 389.4 
L 661.84125 447.3125 
Q 661.84125 448.9125 663.44125 448.9125 
z
" style="fill: #ffffff; opacity: 0.8; stroke: #cccccc; stroke-linejoin: miter"/>
    </g>
    <g id="line2d_91">
     <path d="M 665.04125 394.27875 
L 673.04125 394.27875 
L 681.04125 394.27875 
" style="fill: none; stroke: #1f77b4; stroke-width: 2.2; stroke-linecap: square"/>
    </g>
    <g id="text_36">
     <!-- ch0 -->
     <g transform="translate(687.44125 397.07875) scale(0.08 -0.08)">
      <use xlink:href="#DejaVuSans-63"/>
      <use xlink:href="#DejaVuSans-68" transform="translate(54.980469 0)"/>
      <use xlink:href="#DejaVuSans-30" transform="translate(118.359375 0)"/>
     </g>
    </g>
    <g id="line2d_92">
     <path d="M 665.04125 406.02125 
L 673.04125 406.02125 
L 681.04125 406.02125 
" style="fill: none; stroke: #ff7f0e; stroke-width: 2.2; stroke-linecap: square"/>
    </g>
    <g id="text_37">
     <!-- ch1 -->
     <g transform="translate(687.44125 408.82125) scale(0.08 -0.08)">
      <use xlink:href="#DejaVuSans-63"/>
      <use xlink:href="#DejaVuSans-68" transform="translate(54.980469 0)"/>
      <use xlink:href="#DejaVuSans-31" transform="translate(118.359375 0)"/>
     </g>
    </g>
    <g id="line2d_93">
     <path d="M 665.04125 417.76375 
L 673.04125 417.76375 
L 681.04125 417.76375 
" style="fill: none; stroke: #2ca02c; stroke-width: 2.2; stroke-linecap: square"/>
    </g>
    <g id="text_38">
     <!-- ch2 -->
     <g transform="translate(687.44125 420.56375) scale(0.08 -0.08)">
      <use xlink:href="#DejaVuSans-63"/>
      <use xlink:href="#DejaVuSans-68" transform="translate(54.980469 0)"/>
      <use xlink:href="#DejaVuSans-32" transform="translate(118.359375 0)"/>
     </g>
    </g>
    <g id="line2d_94">
     <path d="M 665.04125 429.50625 
L 673.04125 429.50625 
L 681.04125 429.50625 
" style="fill: none; stroke: #d62728; stroke-width: 2.2; stroke-linecap: square"/>
    </g>
    <g id="text_39">
     <!-- ch3 -->
     <g transform="translate(687.44125 432.30625) scale(0.08 -0.08)">
      <use xlink:href="#DejaVuSans-63"/>
      <use xlink:href="#DejaVuSans-68" transform="translate(54.980469 0)"/>
      <use xlink:href="#DejaVuSans-33" transform="translate(118.359375 0)"/>
     </g>
    </g>
    <g id="line2d_95">
     <path d="M 665.04125 441.24875 
L 673.04125 441.24875 
L 681.04125 441.24875 
" style="fill: none; stroke: #9467bd; stroke-width: 2.2; stroke-linecap: square"/>
    </g>
    <g id="text_40">
     <!-- ch4 -->
     <g transform="translate(687.44125 444.04875) scale(0.08 -0.08)">
      <use xlink:href="#DejaVuSans-63"/>
      <use xlink:href="#DejaVuSans-68" transform="translate(54.980469 0)"/>
      <use xlink:href="#DejaVuSans-34" transform="translate(118.359375 0)"/>
     </g>
    </g>
   </g>
  </g>
 </g>
 <defs>
  <clipPath id="pd756c66bd3">
   <rect x="49.538" y="25.44" width="659.662" height="150.24"/>
  </clipPath>
  <clipPath id="p5a7c9ab34e">
   <rect x="49.538" y="204.62" width="659.662" height="150.24"/>
  </clipPath>
  <clipPath id="p8f02439591">
   <rect x="49.538" y="383.8" width="659.662" height="150.24"/>
  </clipPath>
 </defs>
</svg>
